<svg width="67" height="67" viewBox="0 0 67 67" fill="none" xmlns="http://www.w3.org/2000/svg">
<path fill-rule="evenodd" clip-rule="evenodd" d="M62.691 33.4352C62.691 25.6761 59.6087 18.2347 54.1221 12.7482C48.6356 7.26169 41.1943 4.1794 33.4352 4.1794C25.6761 4.1794 18.2347 7.2617 12.7482 12.7482C7.26169 18.2347 4.1794 25.6761 4.1794 33.4352C4.1794 41.1943 7.26169 48.6356 12.7482 54.1221C18.2347 59.6087 25.6761 62.691 33.4352 62.691C41.1943 62.691 48.6356 59.6087 54.1221 54.1221C59.6087 48.6356 62.691 41.1943 62.691 33.4352ZM66.8704 33.4352C66.8704 24.5676 63.3477 16.0632 57.0774 9.79293C50.8071 3.52262 42.3027 -1.84911e-06 33.4352 -1.4615e-06C24.5676 -1.07388e-06 16.0632 3.52262 9.79294 9.79293C3.52262 16.0632 -1.84911e-06 24.5676 -1.4615e-06 33.4352C-1.07388e-06 42.3027 3.52262 50.8071 9.79294 57.0774C16.0633 63.3477 24.5676 66.8704 33.4352 66.8704C42.3027 66.8704 50.8071 63.3477 57.0774 57.0774C63.3477 50.8071 66.8704 42.3027 66.8704 33.4352Z" fill="#E8E4E4"/>
<path fill-rule="evenodd" clip-rule="evenodd" d="M33.4351 50.1528C33.9893 50.1528 34.5208 49.9327 34.9127 49.5408C35.3046 49.1489 35.5248 48.6174 35.5248 48.0631L35.5248 23.8519L44.4938 32.825C44.6881 33.0193 44.9187 33.1735 45.1726 33.2786C45.4264 33.3838 45.6985 33.4379 45.9733 33.4379C46.2481 33.4379 46.5201 33.3838 46.774 33.2786C47.0278 33.1735 47.2585 33.0193 47.4528 32.825C47.6471 32.6308 47.8012 32.4001 47.9064 32.1462C48.0115 31.8924 48.0656 31.6203 48.0656 31.3455C48.0656 31.0708 48.0115 30.7987 47.9064 30.5448C47.8012 30.291 47.6471 30.0603 47.4528 29.866L34.9146 17.3278C34.7205 17.1332 34.4899 16.9788 34.236 16.8735C33.9821 16.7681 33.71 16.7139 33.4351 16.7139C33.1602 16.7139 32.8881 16.7681 32.6342 16.8735C32.3803 16.9788 32.1497 17.1332 31.9556 17.3278L19.4174 29.866C19.2231 30.0603 19.069 30.291 18.9638 30.5448C18.8587 30.7987 18.8046 31.0708 18.8046 31.3455C18.8046 31.6203 18.8587 31.8924 18.9638 32.1462C19.069 32.4001 19.2231 32.6308 19.4174 32.8251C19.6117 33.0193 19.8423 33.1735 20.0962 33.2786C20.3501 33.3838 20.6221 33.4379 20.8969 33.4379C21.1717 33.4379 21.4438 33.3838 21.6976 33.2786C21.9515 33.1735 22.1821 33.0193 22.3764 32.8251L31.3454 23.8519L31.3454 48.0631C31.3454 48.6174 31.5656 49.1489 31.9575 49.5408C32.3494 49.9327 32.8809 50.1528 33.4351 50.1528Z" fill="#E8E4E4"/>
</svg>
