<svg width="200" height="200" viewBox="0 0 200 200" fill="none" xmlns="http://www.w3.org/2000/svg">
<rect width="200" height="200" rx="40" fill="#2FBBDA"/>
<path d="M129.75 124.281C126.031 129.312 121.219 134.562 114.875 138.5C108.75 142.438 101.75 145.5 93.4375 145.5C85.7813 145.5 79.4375 141.562 75.9375 138.281C70.6875 133.25 67.8438 126.031 66.9688 119.25C64.3438 98.25 77.25 70.4688 97.1563 58.4375C101.75 55.5937 106.781 54.2812 111.594 54.2812C121.219 54.2812 128.438 61.0625 129.313 69.375C130.188 76.8125 127.344 83.1562 119.031 87.3125C114.875 89.5 112.688 89.2812 112.031 88.4062C111.594 87.75 111.813 86.6562 112.688 86C120.344 79.6562 120.563 74.4062 119.688 66.9687C119.031 62.1562 115.969 59.0937 112.469 59.0937C97.375 59.0937 75.5 93 78.5625 117.5C79.6563 127.125 85.5625 138.281 97.8125 138.281C101.75 138.281 106.125 137.188 109.844 135.219C118.375 130.844 122.094 127.781 127.125 120.781C127.781 119.906 128.438 118.812 129.094 117.938C129.531 117.062 130.406 116.844 131.063 116.844C131.719 116.844 132.594 117.5 132.594 118.594C132.594 119.25 132.375 120.562 131.5 121.656C131.281 122.094 130.625 123.406 129.75 124.281Z" fill="white"/>
</svg>
