<svg width="100" height="100" viewBox="0 0 100 100" fill="none" xmlns="http://www.w3.org/2000/svg">
<rect width="100" height="100" fill="#2A3344"/>
<path d="M72.8444 67.4219C70.0256 71.0156 66.3778 74.7656 61.5692 77.5781C56.9264 80.3906 51.6204 82.5781 45.3196 82.5781C39.5161 82.5781 34.7076 79.7656 32.0546 77.4219C28.0751 73.8281 25.9195 68.6719 25.2563 63.8281C23.2665 48.8281 33.0495 28.9844 48.1384 20.3906C51.6204 18.3594 55.4341 17.4219 59.082 17.4219C66.3778 17.4219 71.8496 22.2656 72.5128 28.2031C73.1761 33.5156 71.0205 38.0469 64.7196 41.0156C61.5692 42.5781 59.9111 42.4219 59.4136 41.7969C59.082 41.3281 59.2478 40.5469 59.9111 40.0781C65.7145 35.5469 65.8803 31.7969 65.2171 26.4844C64.7196 23.0469 62.3983 20.8594 59.7453 20.8594C48.3042 20.8594 31.723 45.0781 34.0443 62.5781C34.8734 69.4531 39.3503 77.4219 48.6358 77.4219C51.6204 77.4219 54.9367 76.6406 57.7555 75.2344C64.2222 72.1094 67.041 69.9219 70.8547 64.9219C71.3521 64.2969 71.8496 63.5156 72.347 62.8906C72.6786 62.2656 73.3419 62.1094 73.8393 62.1094C74.3368 62.1094 75 62.5781 75 63.3594C75 63.8281 74.8342 64.7656 74.1709 65.5469C74.0051 65.8594 73.5077 66.7969 72.8444 67.4219Z" fill="#E8E4E4"/>
</svg>
