<svg width="130" height="130" viewBox="0 0 130 130" fill="none" xmlns="http://www.w3.org/2000/svg">
<rect width="130" height="130" rx="30" fill="#E8E4E4"/>
<path d="M84.1251 80.6094C81.7344 83.8437 78.6407 87.2187 74.5626 89.75C70.6251 92.2812 66.1251 94.25 60.7813 94.25C55.8594 94.25 51.7813 91.7187 49.5313 89.6094C46.1563 86.375 44.3282 81.7344 43.7657 77.375C42.0782 63.875 50.3751 46.0156 63.1719 38.2812C66.1251 36.4531 69.3594 35.6094 72.4532 35.6094C78.6407 35.6094 83.2813 39.9687 83.8438 45.3125C84.4063 50.0937 82.5782 54.1719 77.2344 56.8437C74.5626 58.25 73.1563 58.1094 72.7344 57.5469C72.4532 57.125 72.5938 56.4219 73.1563 56C78.0782 51.9219 78.2188 48.5469 77.6563 43.7656C77.2344 40.6719 75.2657 38.7031 73.0157 38.7031C63.3126 38.7031 49.2501 60.5 51.2188 76.25C51.9219 82.4375 55.7188 89.6094 63.5938 89.6094C66.1251 89.6094 68.9376 88.9062 71.3282 87.6406C76.8126 84.8281 79.2032 82.8594 82.4376 78.3594C82.8594 77.7969 83.2813 77.0937 83.7032 76.5312C83.9844 75.9687 84.5469 75.8281 84.9688 75.8281C85.3907 75.8281 85.9532 76.25 85.9532 76.9531C85.9532 77.375 85.8126 78.2187 85.2501 78.9219C85.1094 79.2031 84.6876 80.0469 84.1251 80.6094Z" fill="#2FBBDA"/>
</svg>
