<svg width="35" height="30" viewBox="0 0 35 30" fill="none" xmlns="http://www.w3.org/2000/svg">
<path d="M4.86727 17.0225V21.8541C4.86727 23.1093 5.53689 24.2786 6.60827 24.8804L14.9785 29.5744C15.9829 30.1419 17.1882 30.1419 18.1926 29.5744L26.5628 24.8804C27.6342 24.2786 28.3038 23.1093 28.3038 21.8541V17.0225L18.1926 22.6967C17.1882 23.2641 15.9829 23.2641 14.9785 22.6967L4.86727 17.0225ZM14.9785 0.412667L0.866316 8.32211C-0.288772 8.9755 -0.288772 10.6949 0.866316 11.3483L14.9785 19.2578C15.9829 19.8252 17.1882 19.8252 18.1926 19.2578L31.6519 11.7094V21.8713C31.6519 22.817 32.4052 23.5908 33.326 23.5908C34.2467 23.5908 35 22.817 35 21.8713V10.8497C35 10.2135 34.6652 9.64608 34.1295 9.33658L18.1926 0.412667C17.698 0.141725 17.1461 0 16.5856 0C16.025 0 15.4731 0.141725 14.9785 0.412667V0.412667Z" fill="#323232"/>
</svg>
