<svg width="88" height="94" viewBox="0 0 88 94" fill="none" xmlns="http://www.w3.org/2000/svg">
<g clip-path="url(#clip0_442_278)">
<path fill-rule="evenodd" clip-rule="evenodd" d="M54.3205 30.8652L56.4465 32.9801H56.463C57.3629 33.8898 57.4197 35.4049 56.4465 36.2798L55.1984 37.5455C55.2112 37.5877 55.2405 37.6298 55.2534 37.672C55.4825 38.1526 55.6822 38.7084 55.8362 39.2165L55.8637 39.3137H57.3959C58.677 39.3137 59.7456 40.3812 59.7456 41.6652V44.6953C59.7456 46.0307 58.7064 47.0432 57.3959 47.0432H55.6181C55.455 47.5751 55.0994 48.2464 54.8428 48.7563L55.926 49.8257L55.9682 49.8679C56.8662 50.7667 56.8002 52.2561 55.9682 53.1658L55.9388 53.1952L53.8109 55.3101C52.9202 56.2639 51.3678 56.2529 50.4734 55.3101L49.2381 54.0573C49.1061 54.149 47.5812 54.7158 47.4566 54.7158V56.2345C47.4566 57.5185 46.3899 58.586 45.1051 58.586H42.0791C40.7449 58.586 39.7313 57.5442 39.7313 56.2345V54.4553C39.154 54.2444 38.573 53.9491 38.0213 53.6758L36.9546 54.758L36.9125 54.8001C36.0071 55.6971 34.528 55.6384 33.6134 54.8001L33.5859 54.7726L31.4599 52.6156C30.5086 51.6654 30.5416 50.2494 31.4745 49.3029L32.7227 48.0648C32.6952 48.0226 32.6805 47.9804 32.6659 47.9254C32.4642 47.4338 32.2278 46.9093 32.094 46.3957L32.0665 46.2819H30.5673C29.2733 46.2819 28.2213 45.2144 28.2213 43.9213V40.8911C28.2213 39.5686 29.2532 38.5396 30.5746 38.5396H32.3488C32.5632 37.9178 32.8455 37.4079 33.1241 36.8246L32.0574 35.7442C31.1208 34.807 31.1318 33.3432 32.0574 32.4004L34.1688 30.2727V30.2599C35.0668 29.3538 36.5991 29.3061 37.466 30.2727L38.7288 31.5255C38.7728 31.5108 38.8131 31.4815 38.8406 31.4686C39.3391 31.2357 39.8486 31.0504 40.3728 30.8835C40.415 30.8707 40.4425 30.856 40.4828 30.856V29.3391C40.4828 28.0551 41.5495 26.9876 42.8343 26.9876H45.8602C47.1872 26.9876 48.2117 28.0111 48.2117 29.3391V31.1183C48.2539 31.1311 48.3089 31.1605 48.3528 31.1733C48.8367 31.3641 49.3847 31.6062 49.8392 31.8557L49.9236 31.8979L51.0049 30.8285C52.0203 29.8123 53.4096 29.9682 54.3205 30.8652ZM3.10453 47.2614C2.27977 47.2724 1.51915 46.9569 0.960147 46.4305C-0.264167 45.2768 -0.328316 43.3343 0.824519 42.1072C1.3597 41.5386 2.11298 41.1736 2.95424 41.1442L9.50835 40.9186C10.3514 40.8893 11.1267 41.2084 11.6967 41.7422C12.921 42.9014 12.9907 44.8384 11.8342 46.071C11.2782 46.6605 10.5122 47.0066 9.70263 47.034C7.53259 47.034 5.28557 47.2192 3.10453 47.2614ZM34.4528 78.3297C33.5951 78.3518 32.8418 77.7189 32.7208 76.8532C32.5944 75.9489 33.2029 75.1125 34.0899 74.9401C33.1131 69.3897 30.4408 66.332 27.6183 63.1019C25.4226 60.5853 23.1408 57.9715 21.3428 54.1233C19.576 50.3356 18.6046 46.4195 18.6339 42.353C18.6724 38.2865 19.7024 34.0989 21.9458 29.7683C21.9604 29.7371 21.9751 29.7151 21.9898 29.6858C24.9332 24.7003 29.0497 21.3712 33.6317 19.5039C37.477 17.9301 41.6539 17.3945 45.7466 17.7706C49.8264 18.1484 53.8219 19.4287 57.3134 21.4922C61.7543 24.1189 65.4034 28.0221 67.4122 32.947C68.4972 35.6122 69.234 38.5873 69.3256 41.8486C69.4155 45.0934 68.8583 48.5968 67.3609 52.3019C65.3595 57.2635 62.7092 60.345 60.2349 63.2285C57.9549 65.8881 55.8307 68.357 54.6504 72.1465C55.3193 72.3043 55.8472 72.8527 55.9517 73.5772C56.08 74.5109 55.4256 75.3766 54.4927 75.505L53.9136 75.5876C53.8073 76.4093 53.7395 77.2897 53.7083 78.2307L53.8971 78.2013C54.8318 78.0729 55.6951 78.7278 55.8234 79.6614C55.9517 80.595 55.2973 81.4626 54.3644 81.5892L53.778 81.6736C53.8274 82.4311 53.8696 83.1575 53.8219 83.9242L53.9191 83.9095C54.8611 83.7958 55.7116 84.4671 55.8307 85.4007C55.9443 86.3417 55.2753 87.1928 54.3406 87.3138L53.0778 87.4716C50.1912 94.9571 40.1822 96.6024 36.1079 89.2636C35.8578 89.1365 35.6426 88.95 35.4813 88.7204C35.3199 88.4908 35.2173 88.2252 35.1823 87.9466C35.1544 87.7216 35.1725 87.4932 35.2355 87.2753C34.9422 86.4022 34.7223 85.4466 34.5811 84.3919L34.528 84.3992C33.5951 84.5276 32.7282 83.871 32.6017 82.9373C32.4734 82.0037 33.1277 81.138 34.0606 81.0096L34.4675 80.9509C34.4968 80.0319 34.4895 79.157 34.4528 78.3297ZM37.2735 74.4797L51.1882 72.5005C52.385 67.4546 54.9876 64.4189 57.8101 61.1429C60.1286 58.4466 62.5974 55.5705 64.4027 51.0968C65.7278 47.8209 66.2172 44.7485 66.1421 41.9165C66.0669 39.0917 65.4199 36.4853 64.4559 34.1283C62.7239 29.8894 59.5568 26.5144 55.6896 24.2252C52.5958 22.3947 49.0658 21.2574 45.4607 20.9346C41.872 20.6026 38.2064 21.0777 34.8286 22.4552C30.8715 24.0748 27.3122 26.9527 24.7518 31.2815C22.765 35.1371 21.8468 38.8294 21.8175 42.375C21.7882 45.9444 22.6532 49.402 24.2258 52.7678C25.8277 56.2033 27.9647 58.6429 30.012 60.9925C33.793 65.3287 36.3021 68.5954 37.2735 74.4797ZM50.6237 76.0388L37.6273 77.884C37.6658 78.7131 37.6804 79.5788 37.6657 80.4978L50.4954 78.6746C50.5101 77.7501 50.5485 76.8679 50.6237 76.0388ZM37.7336 83.9462C37.8234 84.6395 37.959 85.2723 38.1313 85.8611L50.5852 84.324C50.6842 83.5628 50.6622 82.8713 50.6164 82.1174L37.7336 83.9462ZM39.8999 89.0985C42.64 91.9691 47.0607 91.0172 49.2253 87.9466L39.8999 89.0985ZM84.6039 37.85C85.0031 37.8088 85.4066 37.847 85.791 37.9626C86.1754 38.0781 86.5331 38.2686 86.8436 38.5231C87.4503 39.0184 87.8718 39.7447 87.9579 40.5848C88.0441 41.423 87.7783 42.2209 87.2871 42.8262C86.7923 43.4334 86.0628 43.8534 85.2271 43.9415L78.7096 44.6256C77.872 44.7118 77.0766 44.4495 76.4699 43.9543C76.1577 43.701 75.8986 43.3884 75.7074 43.0346C75.5161 42.6808 75.3966 42.2927 75.3556 41.8926C75.2713 41.0544 75.5315 40.2583 76.0264 39.6512C76.5212 39.044 77.2489 38.6222 78.0864 38.536L84.6039 37.85ZM71.668 11.7818C72.139 11.0774 72.8501 10.6299 73.6126 10.4795L73.6877 10.4648C74.43 10.3364 75.2273 10.485 75.9072 10.9417C76.6092 11.4149 77.0583 12.1248 77.2085 12.8915C77.357 13.6545 77.2159 14.4799 76.7448 15.1824L73.1031 20.6356C72.6302 21.34 71.9209 21.7875 71.1548 21.9379C70.3923 22.0865 69.5676 21.9453 68.8656 21.4757C68.1618 21.0007 67.7146 20.2908 67.5625 19.5314L67.5497 19.4544C67.4214 18.7115 67.5716 17.9173 68.0262 17.2368L71.668 11.7818ZM43.3676 2.98294C43.3896 2.13552 43.7507 1.37798 44.3152 0.840546C44.6047 0.564222 44.946 0.347911 45.3193 0.204053C45.6927 0.0601947 46.0908 -0.00837087 46.4907 0.00229964C47.3393 0.0224762 48.0963 0.383821 48.6333 0.946932C49.1703 1.51188 49.4928 2.28409 49.4727 3.12601L49.3059 9.64489C49.3114 9.72192 49.3059 9.79713 49.2949 9.8705C49.2289 10.639 48.8807 11.3269 48.3602 11.8221C47.7838 12.3715 47.0153 12.673 46.2195 12.6622C46.1425 12.6677 46.0673 12.6622 45.9959 12.6512C45.2516 12.5879 44.5561 12.2545 44.0402 11.7139C43.7641 11.4242 43.548 11.0826 43.4043 10.709C43.2605 10.3353 43.192 9.93691 43.2027 9.53667L43.3676 2.98294ZM10.9086 14.2378C10.6149 13.9638 10.3781 13.6345 10.2117 13.2688C10.0454 12.903 9.9527 12.508 9.93906 12.1064C9.90974 11.3214 10.1792 10.5253 10.7528 9.90902C11.0266 9.61508 11.3557 9.37809 11.7211 9.21159C12.0866 9.04509 12.4812 8.95236 12.8825 8.9387C13.667 8.91119 14.4606 9.18082 15.0764 9.75311L19.8692 14.2268C20.485 14.8009 20.8131 15.575 20.8406 16.36C20.8681 17.1451 20.5968 17.9393 20.0268 18.5538C19.7532 18.8479 19.4241 19.085 19.0587 19.2515C18.6932 19.418 18.2985 19.5107 17.8971 19.5241C17.4959 19.5395 17.0955 19.4754 16.7191 19.3357C16.3426 19.1959 15.9974 18.9832 15.7032 18.7097L10.9086 14.2378ZM45.3195 36.1276C47.4878 36.5495 49.3646 38.1031 50.2058 40.1409C50.2205 40.1703 50.2205 40.1941 50.2351 40.2106C50.4056 40.6105 50.5284 41.0324 50.609 41.4322C50.7813 42.3457 50.8088 43.2463 50.609 44.1579C50.1856 46.3461 48.6369 48.2006 46.597 49.0645C46.5677 49.0792 46.5402 49.0792 46.5292 49.0902C45.3324 49.5927 43.8441 49.7487 42.5832 49.4643C40.4076 49.0443 38.5455 47.4852 37.6951 45.451C37.6804 45.4235 37.6804 45.396 37.6657 45.3813C37.1654 44.1817 37.0114 42.696 37.2955 41.4322C37.6218 39.7429 38.7104 38.1012 40.1382 37.1529C40.8255 36.6687 41.7584 36.289 42.5832 36.1276C43.4922 35.9497 44.4105 35.9258 45.3195 36.1276Z" fill="#E8E4E4"/>
</g>
<defs>
<clipPath id="clip0_442_278">
<rect width="87.9747" height="94.001" fill="white"/>
</clipPath>
</defs>
</svg>
