<svg width="89" height="95" viewBox="0 0 89 95" fill="none" xmlns="http://www.w3.org/2000/svg">
<g clip-path="url(#clip0_233_153)">
<path fill-rule="evenodd" clip-rule="evenodd" d="M55.2127 30.9437L57.3388 33.0586H57.3553C58.2552 33.9684 58.312 35.4835 57.3388 36.3584L56.0906 37.624C56.1035 37.6662 56.1328 37.7084 56.1456 37.7506C56.3747 38.2312 56.5745 38.7869 56.7285 39.295L56.756 39.3922H58.2882C59.5693 39.3922 60.6378 40.4598 60.6378 41.7437V44.7739C60.6378 46.1092 59.5986 47.1217 58.2882 47.1217H56.5104C56.3472 47.6536 55.9917 48.325 55.7351 48.8349L56.8183 49.9042L56.8604 49.9464C57.7585 50.8452 57.6925 52.3346 56.8604 53.2444L56.8311 53.2737L54.7032 55.3886C53.8125 56.3424 52.2601 56.3314 51.3657 55.3886L50.1304 54.1358C49.9984 54.2275 48.4735 54.7943 48.3489 54.7943V56.3131C48.3489 57.597 47.2822 58.6646 45.9974 58.6646H42.9714C41.6371 58.6646 40.6236 57.6227 40.6236 56.3131V54.5339C40.0463 54.3229 39.4653 54.0276 38.9136 53.7543L37.8469 54.8365L37.8047 54.8787C36.8993 55.7756 35.4203 55.7169 34.5057 54.8787L34.4782 54.8512L32.3521 52.6941C31.4009 51.744 31.4339 50.328 32.3668 49.3815L33.6149 48.1434C33.5875 48.1012 33.5728 48.059 33.5581 48.004C33.3565 47.5124 33.1201 46.9878 32.9863 46.4742L32.9588 46.3605H31.4596C30.1656 46.3605 29.1136 45.293 29.1136 43.9998V40.9697C29.1136 39.6472 30.1454 38.6182 31.4669 38.6182H33.2411C33.4555 37.9964 33.7377 37.4865 34.0163 36.9032L32.9496 35.8228C32.0131 34.8855 32.0241 33.4218 32.9496 32.479L35.061 30.3513V30.3384C35.9591 29.4323 37.4913 29.3846 38.3582 30.3513L39.6211 31.6041C39.665 31.5894 39.7054 31.56 39.7329 31.5472C40.2314 31.3142 40.7409 31.129 41.2651 30.9621C41.3072 30.9492 41.3347 30.9346 41.375 30.9346V29.4176C41.375 28.1337 42.4417 27.0662 43.7265 27.0662H46.7525C48.0794 27.0662 49.104 28.0897 49.104 29.4176V31.1969C49.1461 31.2097 49.2011 31.239 49.2451 31.2519C49.729 31.4426 50.277 31.6848 50.7315 31.9342L50.8158 31.9764L51.8972 30.907C52.9126 29.8909 54.3018 30.0468 55.2127 30.9437ZM3.9968 47.34C3.17204 47.351 2.41143 47.0355 1.85242 46.5091C0.628105 45.3553 0.563957 43.4129 1.71679 42.1858C2.25197 41.6172 3.00525 41.2521 3.84651 41.2228L10.4006 40.9972C11.2437 40.9678 12.019 41.287 12.589 41.8208C13.8133 42.98 13.883 44.917 12.7265 46.1496C12.1705 46.7391 11.4045 47.0852 10.5949 47.1125C8.42486 47.1125 6.17784 47.2978 3.9968 47.34ZM35.3451 78.4083C34.4874 78.4303 33.7341 77.7975 33.6131 76.9317C33.4866 76.0275 34.0951 75.191 34.9822 75.0186C34.0053 69.4682 31.3331 66.4105 28.5106 63.1805C26.3149 60.6639 24.033 58.0501 22.2351 54.2019C20.4682 50.4142 19.4968 46.4981 19.5262 42.4316C19.5647 38.3651 20.5947 34.1775 22.838 29.8469C22.8527 29.8157 22.8674 29.7937 22.882 29.7643C25.8255 24.7789 29.942 21.4497 34.524 19.5825C38.3692 18.0087 42.5462 17.4731 46.6389 17.8491C50.7187 18.227 54.7142 19.5073 58.2057 21.5708C62.6466 24.1974 66.2957 28.1007 68.3045 33.0256C69.3895 35.6907 70.1263 38.6659 70.2179 41.9271C70.3077 45.1719 69.7505 48.6753 68.2531 52.3805C66.2517 57.3421 63.6015 60.4236 61.1272 63.307C58.8472 65.9667 56.723 68.4355 55.5426 72.2251C56.2116 72.3828 56.7395 72.9313 56.8439 73.6558C56.9722 74.5894 56.3179 75.4552 55.385 75.5836L54.8059 75.6661C54.6995 76.4878 54.6317 77.3683 54.6006 78.3092L54.7894 78.2799C55.7241 78.1515 56.5873 78.8063 56.7156 79.7399C56.8439 80.6736 56.1896 81.5412 55.2567 81.6677L54.6702 81.7521C54.7197 82.5096 54.7619 83.236 54.7142 84.0027L54.8113 83.988C55.7534 83.8743 56.6038 84.5456 56.723 85.4793C56.8366 86.4202 56.1676 87.2713 55.2329 87.3924L53.9701 87.5501C51.0834 95.0357 41.0745 96.681 37.0001 89.3422C36.75 89.2151 36.5349 89.0286 36.3735 88.799C36.2122 88.5694 36.1095 88.3037 36.0746 88.0252C36.0467 87.8001 36.0648 87.5717 36.1277 87.3539C35.8345 86.4808 35.6145 85.5251 35.4734 84.4704L35.4203 84.4778C34.4874 84.6062 33.6204 83.9495 33.494 83.0159C33.3657 82.0823 34.02 81.2165 34.9529 81.0881L35.3598 81.0294C35.3891 80.1105 35.3818 79.2355 35.3451 78.4083ZM38.1658 74.5582L52.0805 72.5791C53.2773 67.5331 55.8799 64.4974 58.7024 61.2215C61.0209 58.5252 63.4897 55.6491 65.295 51.1754C66.6201 47.8994 67.1095 44.8271 67.0343 41.995C66.9592 39.1703 66.3122 36.5638 65.3481 34.2068C63.6161 29.9679 60.4491 26.5929 56.5818 24.3038C53.4881 22.4732 49.9581 21.336 46.3529 21.0132C42.7643 20.6812 39.0987 21.1562 35.7208 22.5338C31.7638 24.1534 28.2045 27.0313 25.6441 31.3601C23.6573 35.2157 22.7391 38.908 22.7098 42.4536C22.6804 46.023 23.5455 49.4805 25.1181 52.8464C26.7199 56.2819 28.857 58.7214 30.9042 61.0711C34.6853 65.4072 37.1944 68.674 38.1658 74.5582ZM51.516 76.1173L38.5195 77.9626C38.558 78.7916 38.5727 79.6574 38.558 80.5764L51.3877 78.7531C51.4023 77.8287 51.4408 76.9464 51.516 76.1173ZM38.6258 84.0247C38.7156 84.7181 38.8513 85.3509 39.0236 85.9397L51.4775 84.4026C51.5764 83.6414 51.5545 82.9499 51.5086 82.196L38.6258 84.0247ZM40.7922 89.1771C43.5323 92.0477 47.953 91.0957 50.1175 88.0252L40.7922 89.1771ZM85.4962 37.9285C85.8954 37.8873 86.2989 37.9256 86.6832 38.0411C87.0676 38.1567 87.4254 38.3472 87.7359 38.6017C88.3425 39.0969 88.7641 39.8233 88.8502 40.6634C88.9364 41.5016 88.6706 42.2995 88.1794 42.9048C87.6846 43.5119 86.9551 43.932 86.1193 44.02L79.6019 44.7042C78.7643 44.7904 77.9688 44.5281 77.3622 44.0328C77.05 43.7795 76.7909 43.467 76.5996 43.1132C76.4084 42.7594 76.2889 42.3713 76.2478 41.9712C76.1635 41.1329 76.4238 40.3369 76.9187 39.7297C77.4135 39.1226 78.1411 38.7007 78.9787 38.6145L85.4962 37.9285ZM72.5602 11.8603C73.0313 11.156 73.7424 10.7084 74.5049 10.558L74.58 10.5433C75.3223 10.4149 76.1196 10.5635 76.7995 11.0202C77.5015 11.4935 77.9505 12.2033 78.1008 12.97C78.2493 13.7331 78.1081 14.5585 77.6371 15.261L73.9953 20.7142C73.5225 21.4185 72.8132 21.8661 72.0471 22.0165C71.2846 22.1651 70.4598 22.0238 69.7579 21.5543C69.0541 21.0792 68.6069 20.3694 68.4548 19.61L68.4419 19.5329C68.3136 18.7901 68.4639 17.9958 68.9185 17.3153L72.5602 11.8603ZM44.2599 3.06149C44.2819 2.21407 44.6429 1.45653 45.2074 0.919098C45.497 0.642775 45.8382 0.426463 46.2116 0.282605C46.5849 0.138747 46.983 0.0701814 47.383 0.0808519C48.2316 0.101028 48.9885 0.462373 49.5255 1.02548C50.0625 1.59043 50.3851 2.36264 50.365 3.20456L50.1982 9.72344C50.2037 9.80048 50.1982 9.87568 50.1872 9.94905C50.1212 10.7176 49.773 11.4054 49.2524 11.9007C48.676 12.45 47.9076 12.7516 47.1117 12.7408C47.0347 12.7463 46.9596 12.7408 46.8881 12.7298C46.1439 12.6664 45.4484 12.3331 44.9325 11.7925C44.6564 11.5027 44.4403 11.1612 44.2965 10.7875C44.1528 10.4139 44.0843 10.0155 44.0949 9.61522L44.2599 3.06149ZM11.8009 14.3164C11.5072 14.0423 11.2704 13.713 11.104 13.3473C10.9376 12.9816 10.845 12.5866 10.8313 12.185C10.802 11.3999 11.0714 10.6039 11.6451 9.98757C11.9189 9.69364 12.248 9.45664 12.6134 9.29014C12.9788 9.12364 13.3735 9.03091 13.7748 9.01726C14.5593 8.98974 15.3529 9.25938 15.9687 9.83166L20.7615 14.3054C21.3773 14.8795 21.7054 15.6535 21.7329 16.4386C21.7604 17.2236 21.4891 18.0179 20.9191 18.6323C20.6454 18.9264 20.3164 19.1636 19.9509 19.3301C19.5855 19.4966 19.1907 19.5892 18.7894 19.6026C18.3881 19.618 17.9878 19.554 17.6113 19.4142C17.2349 19.2745 16.8897 19.0618 16.5955 18.7882L11.8009 14.3164ZM46.2118 36.2062C48.38 36.628 50.2568 38.1816 51.0981 40.2195C51.1127 40.2488 51.1127 40.2727 51.1274 40.2892C51.2979 40.689 51.4207 41.1109 51.5013 41.5108C51.6736 42.4242 51.7011 43.3248 51.5013 44.2365C51.0779 46.4247 49.5292 48.2791 47.4893 49.143C47.46 49.1577 47.4325 49.1577 47.4215 49.1687C46.2246 49.6713 44.7364 49.8272 43.4754 49.5429C41.2999 49.1229 39.4378 47.5638 38.5873 45.5296C38.5727 45.5021 38.5727 45.4746 38.558 45.4599C38.0577 44.2603 37.9037 42.7746 38.1878 41.5108C38.514 39.8214 39.6027 38.1798 41.0305 37.2315C41.7178 36.7473 42.6507 36.3676 43.4754 36.2062C44.3845 36.0282 45.3027 36.0044 46.2118 36.2062Z" fill="#E5E0E0"/>
</g>
<defs>
<clipPath id="clip0_233_153">
<rect width="87.9747" height="94.001" fill="white" transform="translate(0.892334 0.0785522)"/>
</clipPath>
</defs>
</svg>
