<svg width="100" height="100" viewBox="0 0 100 100" fill="none" xmlns="http://www.w3.org/2000/svg">
<rect width="100" height="100" fill="#2A3344"/>
<g clip-path="url(#clip0_459_181)">
<path d="M49.9695 85.104L29.6215 79.4506L25.0869 28.5504H74.9131L70.3738 79.4428L49.9695 85.104V85.104Z" fill="#E8E4E4"/>
<path d="M66.4877 76.2021L70.3666 32.7121H50V80.7767L66.4877 76.2021V76.2021Z" fill="#E8E4E4"/>
<path d="M35.4822 51.5904L36.0412 57.8331H50V51.5904H35.4822ZM34.3588 38.955L34.9258 45.1977H50V38.955H34.3588V38.955ZM50 67.8034L49.9726 67.8106L43.0258 65.9333L42.5816 60.9545H36.3199L37.1937 70.7565L49.9713 74.3063L50 74.2985V67.8034Z" fill="#2A3344"/>
<path d="M36.8132 14.7178H44.3679V17.8797H39.9726V21.0416H44.3683V24.2033H36.8132V14.7178ZM45.8791 14.7178H53.4339V17.4672H49.0384V18.0171H53.4339V24.3409H45.8792V21.4537H50.2748V20.9038H45.8789V14.7178H45.8791ZM54.9451 14.7178H62.4999V17.4672H58.1044V18.0171H62.4999V24.3409H54.9451V21.4537H59.3406V20.9038H54.9453V14.7178H54.9451Z" fill="#E8E4E4"/>
<path d="M64.4779 51.5904L65.6039 38.955H49.9785V45.1977H58.7679L58.2003 51.5904H49.9785V57.8331H57.6595L56.9353 65.9294L49.9783 67.8087V74.3033L62.766 70.7565L62.8597 69.7018L64.3257 53.2667L64.4779 51.5904V51.5904Z" fill="#2A3344"/>
</g>
<defs>
<clipPath id="clip0_459_181">
<rect width="50" height="70.5645" fill="white" transform="translate(25 14.7178)"/>
</clipPath>
</defs>
</svg>
