<svg width="130" height="130" viewBox="0 0 130 130" fill="none" xmlns="http://www.w3.org/2000/svg">
<rect width="130" height="130" rx="30" fill="#E8E4E4"/>
<g clip-path="url(#clip0_233_52)">
<path d="M64.9572 114.146L36.47 106.231L30.1216 34.9705H99.8782L93.5233 106.22L64.9572 114.146Z" fill="#1C41CE"/>
<path d="M88.0828 101.683L93.5132 40.7969H65V108.087L88.0828 101.683Z" fill="#264DE4"/>
<path d="M44.6751 67.2265L45.4577 75.9663H65V67.2265H44.6751ZM43.1023 49.537L43.8961 58.2768H65V49.537H43.1023ZM65 89.9247L64.9617 89.9348L55.2361 87.3066L54.6143 80.3363H45.8479L47.0712 94.0591L64.9598 99.0288L65 99.0178V89.9247Z" fill="#E8E4E4"/>
<path d="M46.5386 15.6049H57.1151V20.0315H50.9617V24.4582H57.1157V28.8846H46.5386V15.6049ZM59.2307 15.6049H69.8076V19.4541H63.6538V20.2239H69.8076V29.0773H59.231V25.0351H65.3847V24.2653H59.2304V15.6049H59.2307ZM71.9231 15.6049H82.5V19.4541H76.3463V20.2239H82.5V29.0773H71.9231V25.0351H78.0769V24.2653H71.9234V15.6049H71.9231Z" fill="#264DE4"/>
<path d="M85.2692 67.2265L86.8456 49.537H64.97V58.2768H77.2752L76.4806 67.2265H64.97V75.9663H75.7235L74.7096 87.3012L64.9697 89.9321V99.0246L82.8725 94.0591L83.0038 92.5825L85.0562 69.5734L85.2692 67.2265Z" fill="#E8E4E4"/>
</g>
<defs>
<clipPath id="clip0_233_52">
<rect width="70" height="98.7903" fill="white" transform="translate(30 15.6049)"/>
</clipPath>
</defs>
</svg>
