<svg width="200" height="200" viewBox="0 0 200 200" fill="none" xmlns="http://www.w3.org/2000/svg">
<rect width="200" height="200" rx="40" fill="#264DE4"/>
<g clip-path="url(#clip0_38_510)">
<path d="M99.9391 170.208L59.243 158.901L50.1738 57.1007H149.826L140.748 158.886L99.9391 170.208Z" fill="#CFCBCB"/>
<path d="M132.975 152.404L140.733 65.4242H100V161.553L132.975 152.404Z" fill="#E8E4E4"/>
<path d="M70.9644 103.181L72.0824 115.666H100V103.181H70.9644ZM68.7176 77.91L69.8516 90.3954H100V77.91H68.7176ZM100 135.607L99.9453 135.621L86.0516 131.867L85.1633 121.909H72.6398L74.3875 141.513L99.9426 148.612L100 148.597V135.607Z" fill="#264DE4"/>
<path d="M73.6266 29.4355H88.7359V35.7593H79.9453V42.0831H88.7367V48.4066H73.6266V29.4355ZM91.7582 29.4355H106.868V34.9344H98.0769V36.0341H106.868V48.6818H91.7586V42.9072H100.55V41.8075H91.7578V29.4355H91.7582ZM109.89 29.4355H125V34.9344H116.209V36.0341H125V48.6818H109.89V42.9072H118.681V41.8075H109.891V29.4355H109.89Z" fill="#E8E4E4"/>
<path d="M128.956 103.181L131.208 77.91H99.957V90.3954H117.536L116.401 103.181H99.957V115.666H115.319L113.871 131.859L99.9566 135.617V148.607L125.532 141.513L125.72 139.404L128.652 106.533L128.956 103.181Z" fill="#264DE4"/>
</g>
<defs>
<clipPath id="clip0_38_510">
<rect width="100" height="141.129" fill="white" transform="translate(50 29.4355)"/>
</clipPath>
</defs>
</svg>
