<svg width="88" height="94" viewBox="0 0 88 94" fill="none" xmlns="http://www.w3.org/2000/svg">
<path d="M34.3522 78.0784C33.4648 78.1014 32.6864 77.4587 32.5618 76.579C32.4295 75.661 33.06 74.8118 33.9785 74.6358C32.9666 68.9976 30.2033 65.8917 27.2842 62.6097C25.0113 60.0546 22.6527 57.3999 20.7923 53.4907C18.963 49.6426 17.9589 45.6645 17.99 41.5334C18.0289 37.4023 19.0954 33.1488 21.415 28.75C21.4306 28.7194 21.4461 28.6964 21.4617 28.6658C24.5053 23.6014 28.7632 20.22 33.5037 18.3228C37.4814 16.7239 41.8015 16.1807 46.0361 16.5632C50.2551 16.9457 54.3884 18.2463 58.0002 20.3424C62.5929 23.0123 66.3681 26.9751 68.4465 31.9784C69.5674 34.6865 70.3302 37.7083 70.4237 41.0209C70.5171 44.3181 69.941 47.8755 68.392 51.6393C66.3214 56.6808 63.5814 59.8098 61.0205 62.7398C58.6619 65.4403 56.4668 67.9496 55.2447 71.7976C55.9375 71.9583 56.4823 72.5167 56.5913 73.2511C56.7237 74.1998 56.0464 75.0795 55.0812 75.2096L54.4818 75.2937C54.3729 76.1276 54.3028 77.0227 54.2717 77.979L54.4663 77.9484C55.4315 77.8183 56.3267 78.4839 56.459 79.4325C56.5913 80.3811 55.9141 81.2609 54.9489 81.3909L54.3417 81.4751C54.3495 81.5899 54.3573 81.7046 54.3651 81.8194C54.4196 82.4926 54.4273 83.1428 54.3884 83.7625L54.4896 83.7472C55.4626 83.6325 56.3422 84.3133 56.4668 85.2619C56.5835 86.2182 55.8908 87.0827 54.9255 87.2051L53.6178 87.3657C52.6837 89.745 51.0179 91.5504 49.0485 92.675C47.6941 93.4476 46.1918 93.8914 44.6817 93.9832C43.1482 94.075 41.5992 93.7919 40.1825 93.1187C38.5634 92.3384 37.1155 91.0455 36.0647 89.1865C35.5587 88.934 35.1851 88.4444 35.1072 87.8477C35.0761 87.6106 35.0994 87.381 35.1617 87.1668C34.8581 86.2794 34.6246 85.3078 34.4845 84.2368L34.43 84.2445C33.4648 84.3745 32.5696 83.709 32.4373 82.7603C32.305 81.8117 32.9822 80.9319 33.9474 80.8019L34.3677 80.7407C34.3989 79.8074 34.3911 78.9199 34.3522 78.0784ZM51.6951 30.8614C52.1466 30.8691 52.6059 30.9532 53.0496 31.0986C53.9837 31.4122 54.8788 32.0166 55.5716 32.8199C56.2644 33.6308 56.7626 34.6483 56.8871 35.7805C56.9416 36.2778 56.926 36.7903 56.8248 37.3182C57.3075 37.7542 57.7122 38.2362 58.0158 38.7564C58.514 39.5903 58.7709 40.516 58.7397 41.4569C58.7086 42.4056 58.3972 43.3542 57.7356 44.2263C57.3386 44.7542 56.8171 45.2514 56.1632 45.7028C56.2099 47.1104 55.7818 48.3804 55.089 49.3596C54.3184 50.4536 53.213 51.2109 52.0532 51.4481C51.773 52.435 51.0958 53.3071 50.2395 53.9115C49.1186 54.6994 47.6552 55.0666 46.3163 54.7071C45.3978 54.4623 44.5571 53.8885 43.95 52.9093C43.2183 53.9956 42.253 54.577 41.2411 54.7836C39.9489 55.0513 38.6101 54.6612 37.5981 53.8885C36.8197 53.2918 36.2281 52.4579 35.9946 51.5093C35.621 51.4787 35.2396 51.4022 34.8737 51.2798C33.963 50.9738 33.0834 50.3924 32.4061 49.612C31.7211 48.8317 31.2152 47.8525 31.0595 46.7585C30.9817 46.2154 30.9894 45.6416 31.1062 45.0602C30.6859 44.6777 30.3278 44.2493 30.032 43.7826C29.5105 42.9487 29.2147 42.0078 29.2302 41.0362C29.2458 40.057 29.5572 39.0701 30.2422 38.1521C30.6236 37.6395 31.1296 37.1499 31.7601 36.6985C31.7523 36.5455 31.7523 36.3925 31.7601 36.2472C31.8146 34.8242 32.3439 33.5772 33.1145 32.6516C33.1379 32.6286 33.1534 32.6057 33.1768 32.5827C33.9474 31.6876 34.9515 31.0909 35.9946 30.915C36.0335 30.7773 36.0725 30.6472 36.1192 30.5095C36.485 29.5456 37.2245 28.7194 38.1352 28.1992C39.0538 27.6713 40.1591 27.4418 41.2333 27.6636C42.1985 27.8625 43.1248 28.4057 43.841 29.4002C44.5571 28.4057 45.4834 27.8625 46.4486 27.6636C47.4294 27.4647 48.4336 27.633 49.2976 28.0615C50.1461 28.4822 50.8778 29.1631 51.3215 29.974C51.4927 30.2647 51.6173 30.5554 51.6951 30.8614ZM51.9909 49.2295C52.4735 49.0306 52.9406 48.6481 53.2987 48.1356C53.8046 47.4088 54.0926 46.4372 53.9525 45.3432L53.9447 45.3126V45.2897C53.8902 44.8766 54.0848 44.4482 54.4741 44.2187C55.1513 43.8285 55.6417 43.4001 55.9842 42.9411C56.3578 42.4362 56.5446 41.9083 56.5602 41.3881C56.5758 40.8602 56.4201 40.3324 56.1243 39.8351C55.8518 39.3761 55.4626 38.9553 54.9878 38.5958C54.583 38.3357 54.3962 37.8308 54.5597 37.3564C54.7231 36.8821 54.7621 36.4308 54.7154 35.9947C54.6375 35.3215 54.3339 34.7018 53.9058 34.1969C53.4699 33.692 52.9172 33.3171 52.3568 33.1259C52.1155 33.0494 51.8742 33.0035 51.6484 33.0035C51.4772 33.5084 51.197 34.0133 50.7766 34.5029C50.3874 34.9543 49.7024 35.0155 49.2431 34.633C48.7839 34.2505 48.7216 33.5772 49.1108 33.1259C49.7491 32.3838 49.7569 31.6035 49.4222 30.9991C49.1887 30.5707 48.7994 30.2112 48.3402 29.9893C47.8965 29.7674 47.3983 29.6756 46.9235 29.7751C46.2307 29.9128 45.5613 30.4866 45.1254 31.68V49.8109C45.211 49.9334 45.2655 50.0711 45.2888 50.2317C45.5379 51.7312 46.184 52.4503 46.9079 52.6492C47.5773 52.8328 48.3558 52.6109 48.9785 52.1749C49.5856 51.7464 50.0215 51.1268 50.0293 50.4765C50.0371 49.7344 49.4611 48.8853 47.9276 48.1126C47.3905 47.8449 47.1726 47.1946 47.445 46.6667C47.7175 46.1389 48.3791 45.9247 48.9162 46.1924C50.6521 47.0569 51.6017 48.1356 51.9909 49.2295ZM36.0958 33.1029C35.6521 33.2483 35.2162 33.5466 34.8504 33.9598C34.8348 33.9827 34.8192 33.998 34.8036 34.0133C34.3055 34.61 33.9708 35.4056 33.9318 36.3237C33.924 36.5685 33.9318 36.8286 33.9708 37.0963C34.0252 37.5018 33.8384 37.9226 33.4648 38.1597C32.8109 38.5575 32.3283 38.9859 31.9936 39.4373C31.5888 39.9728 31.4098 40.5389 31.402 41.0744C31.3942 41.6252 31.5655 42.1684 31.8768 42.6657C32.1415 43.0864 32.4996 43.4689 32.9433 43.7903C33.3402 44.058 33.5193 44.5553 33.3636 45.0219C33.1923 45.5268 33.1534 46.0165 33.2157 46.4755C33.3091 47.1334 33.6205 47.7301 34.0486 48.2197C34.4767 48.7093 35.0138 49.0689 35.5665 49.2525C35.7455 49.3137 35.9246 49.3519 36.0958 49.3672C36.4928 48.2274 37.4892 47.1028 39.3029 46.1924C39.84 45.9247 40.4938 46.1312 40.774 46.6591C41.0465 47.1869 40.8363 47.8296 40.2992 48.105C38.6723 48.9159 38.0652 49.8339 38.0652 50.6295C38.0652 51.2339 38.4233 51.8076 38.9448 52.2055C39.4741 52.6109 40.1591 52.8175 40.7974 52.6874C41.5992 52.5268 42.3776 51.777 42.7901 50.1399C42.8135 50.0328 42.8602 49.9334 42.9147 49.8416V32.621C42.8913 32.5827 42.868 32.5368 42.8446 32.4909L42.8368 32.4756L42.829 32.4603L42.8213 32.445V32.4374V32.4297L42.8135 32.4144V32.4068V32.3991V32.3991C42.8057 32.3685 42.7979 32.3379 42.7901 32.3073C42.3776 30.6778 41.5992 29.9357 40.7974 29.7751C40.2759 29.668 39.7154 29.7904 39.2406 30.0658C38.758 30.3412 38.3688 30.7696 38.1819 31.2592C37.9406 31.9019 38.0885 32.6975 38.9214 33.4548C39.3651 33.8603 39.3885 34.5335 38.9837 34.9696C38.5712 35.4056 37.8861 35.4286 37.4425 35.0308C36.7652 34.4035 36.3293 33.7532 36.0958 33.1029ZM36.3215 36.645C36.7497 36.2319 37.4425 36.2319 37.8706 36.6603C38.2909 37.081 38.2909 37.7619 37.855 38.1827C37.1 38.9094 36.703 39.858 36.664 40.8143C36.6251 41.8088 36.9521 42.834 37.6448 43.6755C38.0263 44.1345 37.9484 44.8154 37.4814 45.1826C37.0143 45.5574 36.3215 45.4809 35.9479 45.0219C34.9126 43.7596 34.4222 42.2296 34.4845 40.7302C34.539 39.2384 35.1461 37.7772 36.3215 36.645ZM49.3755 37.7772C48.8851 37.4253 48.7761 36.7597 49.1342 36.2778C49.4922 35.7958 50.1694 35.6887 50.6598 36.0406C50.8467 36.1783 51.0257 36.316 51.1892 36.4614C52.4191 37.5553 53.0963 38.9936 53.2208 40.4854C53.3454 41.9619 52.925 43.4842 51.9754 44.7618C51.9598 44.7848 51.9364 44.8154 51.9131 44.8383C51.7808 45.0143 51.6484 45.1673 51.5239 45.3126C51.1191 45.7563 50.4263 45.787 49.9748 45.3891C49.5234 44.9913 49.4922 44.3105 49.897 43.8668C49.9982 43.752 50.0838 43.6525 50.1617 43.5531C50.1772 43.5301 50.185 43.5148 50.2006 43.4919C50.8311 42.6351 51.1113 41.6252 51.0335 40.646C50.9556 39.6821 50.5197 38.7564 49.7258 38.0526C49.6168 37.9608 49.5 37.869 49.3755 37.7772ZM1.69791 45.0296C0.787171 45.0525 0.0321144 44.3564 0.000978067 43.4613C-0.0301583 42.5662 0.685978 41.8242 1.59672 41.7936L8.36888 41.564C9.27962 41.5334 10.0347 42.2373 10.0658 43.1323C10.0969 44.0274 9.38081 44.7695 8.47007 44.8001L1.69791 45.0296ZM86.1553 38.4428C87.0583 38.351 87.8678 39.0012 87.9612 39.8887C88.0546 40.7761 87.393 41.5717 86.49 41.6635L79.749 42.3597C78.846 42.4515 78.0365 41.8012 77.9431 40.9138C77.8497 40.0264 78.5113 39.2307 79.4143 39.1389L86.1553 38.4428ZM73.8798 11.3075C74.3858 10.5655 75.4055 10.3666 76.1605 10.8638C76.9156 11.3611 77.118 12.3633 76.612 13.1053L72.8445 18.6441C72.3385 19.3861 71.3188 19.585 70.5638 19.0878C69.8087 18.5905 69.6063 17.5883 70.1123 16.8463L73.8798 11.3075ZM44.8607 1.57649C44.884 0.681413 45.6391 -0.0224049 46.5421 0.000545693C47.4528 0.0234963 48.1689 0.765565 48.1456 1.65299L47.9743 8.30866C47.951 9.20373 47.1959 9.90755 46.293 9.8846C45.3822 9.86164 44.6661 9.11958 44.6894 8.23215L44.8607 1.57649ZM10.8053 11.8813C10.1359 11.2693 10.1047 10.2442 10.7197 9.59389C11.3424 8.93597 12.3855 8.90537 13.0471 9.50974L18.0056 14.054C18.675 14.666 18.7061 15.6911 18.0912 16.3414C17.4685 16.9993 16.4254 17.0299 15.7638 16.4255L10.8053 11.8813ZM37.2712 74.1692L51.664 72.1648C52.9017 67.0392 55.595 63.9562 58.514 60.6283C60.9115 57.8896 63.4647 54.9672 65.3329 50.423C66.7029 47.0951 67.2088 43.9739 67.131 41.0974C67.0531 38.2286 66.3837 35.5816 65.3873 33.1871C63.597 28.88 60.3199 25.4527 56.3267 23.1271C53.1274 21.2681 49.4767 20.1129 45.7481 19.7839C42.0351 19.4473 38.2442 19.9293 34.7492 21.3293C30.6547 22.9741 26.9729 25.8964 24.3263 30.2953C22.2713 34.2122 21.3216 37.9608 21.2905 41.564C21.2593 45.1902 22.1545 48.7017 23.7814 52.1213C25.4394 55.6098 27.6501 58.0885 29.7673 60.4753C33.06 64.1857 36.1814 67.6971 37.2712 74.1692ZM51.0802 75.7528L37.6371 77.6271C37.676 78.4686 37.6915 79.3483 37.676 80.2817L50.9479 78.4303C50.9634 77.4893 51.0023 76.5943 51.0802 75.7528ZM37.746 83.7855C37.8394 84.4893 37.9796 85.1319 38.1586 85.7286L51.0413 84.168C51.1269 83.51 51.1425 82.8139 51.0802 82.0718V82.0565L51.0724 81.9265L37.746 83.7855ZM39.9879 89.0182C40.486 89.5308 41.0387 89.9286 41.6225 90.204C42.5177 90.6324 43.5063 90.8083 44.4793 90.7548C45.4756 90.6936 46.4798 90.3952 47.3905 89.875C48.2468 89.3854 49.0174 88.7045 49.6323 87.8477L39.9879 89.0182Z" fill="#E8E4E4"/>
</svg>
