<svg width="17" height="21" viewBox="0 0 17 21" fill="none" xmlns="http://www.w3.org/2000/svg">
<path d="M13.7457 7.64285H11.9286V1.92856C11.9286 1.29999 11.4143 0.785706 10.7857 0.785706H6.21429C5.58571 0.785706 5.07143 1.29999 5.07143 1.92856V7.64285H3.25429C2.23714 7.64285 1.72286 8.87713 2.44286 9.59713L7.68857 14.8428C8.13429 15.2886 8.85429 15.2886 9.3 14.8428L14.5457 9.59713C15.2657 8.87713 14.7629 7.64285 13.7457 7.64285ZM0.5 19.0714C0.5 19.7 1.01429 20.2143 1.64286 20.2143H15.3571C15.9857 20.2143 16.5 19.7 16.5 19.0714C16.5 18.4429 15.9857 17.9286 15.3571 17.9286H1.64286C1.01429 17.9286 0.5 18.4429 0.5 19.0714Z" fill="#0E56CB"/>
</svg>
