<svg width="41" height="41" viewBox="0 0 41 41" fill="none" xmlns="http://www.w3.org/2000/svg">
<g clip-path="url(#clip0_249_97)">
<path d="M20.5001 0.820068C9.63097 0.820068 0.820068 9.63097 0.820068 20.5001C0.820068 31.3692 9.63097 40.1801 20.5001 40.1801C31.3692 40.1801 40.1801 31.3692 40.1801 20.5001C40.1801 9.63097 31.3692 0.820068 20.5001 0.820068ZM15.6826 28.657H11.6974V15.8322H15.6826V28.657ZM13.6654 14.2578C12.4067 14.2578 11.5928 13.3661 11.5928 12.2632C11.5928 11.1377 12.4313 10.2726 13.7166 10.2726C15.002 10.2726 15.7892 11.1377 15.8138 12.2632C15.8138 13.3661 15.002 14.2578 13.6654 14.2578ZM30.2376 28.657H26.2524V21.5497C26.2524 19.8953 25.6743 18.7719 24.2331 18.7719C23.1323 18.7719 22.4783 19.5325 22.1893 20.2643C22.0827 20.5247 22.056 20.8937 22.056 21.2606V28.655H18.0688V19.922C18.0688 18.3209 18.0175 16.9823 17.9642 15.8302H21.4267L21.6091 17.6116H21.6891C22.2139 16.7752 23.4992 15.5411 25.6497 15.5411C28.2716 15.5411 30.2376 17.298 30.2376 21.0741V28.657Z" fill="#E8E4E4"/>
</g>
<defs>
<clipPath id="clip0_249_97">
<rect width="41" height="41" fill="white"/>
</clipPath>
</defs>
</svg>
