<svg width="40" height="41" viewBox="0 0 40 41" fill="none" xmlns="http://www.w3.org/2000/svg">
<ellipse cx="20" cy="20.5" rx="20" ry="20.25" fill="#E8E4E4"/>
<path d="M9 18.3693V24.75C9 25.8772 9.4346 26.9582 10.2082 27.7552C10.9818 28.5522 12.031 29 13.125 29H26.875C27.969 29 29.0182 28.5522 29.7918 27.7552C30.5654 26.9582 31 25.8772 31 24.75V18.3693L20.5637 23.2087C20.3865 23.2908 20.1943 23.3332 20 23.3332C19.8057 23.3332 19.6135 23.2908 19.4363 23.2087L9 18.3693ZM9.10175 15.3093L20 20.364L30.8983 15.3093C30.6912 14.3694 30.1802 13.53 29.4492 12.9287C28.7182 12.3273 27.8104 11.9999 26.875 12H13.125C12.1896 11.9999 11.2818 12.3273 10.5508 12.9287C9.81976 13.53 9.30879 14.3694 9.10175 15.3093Z" fill="#323232"/>
</svg>
