<svg width="40" height="41" viewBox="0 0 40 41" fill="none" xmlns="http://www.w3.org/2000/svg">
<circle cx="20" cy="20.5" r="20" fill="#E8E4E4"/>
<g clip-path="url(#clip0_249_91)">
<path d="M20 7.16675C14.4427 7.16675 10 11.6095 10 17.1667C10 19.0886 10.5729 20.573 11.5677 22.0782L18.9479 33.2761C19.1719 33.6147 19.5573 33.8334 20 33.8334C20.4427 33.8334 20.8333 33.6095 21.0521 33.2761L28.4323 22.0782C29.4271 20.573 30 19.0886 30 17.1667C30 11.6095 25.5573 7.16675 20 7.16675ZM20 22.7188C16.9323 22.7188 14.4427 20.2292 14.4427 17.1563C14.4427 14.0834 16.9323 11.5938 20 11.5938C23.0677 11.5938 25.5573 14.0834 25.5573 17.1563C25.5573 20.2292 23.0677 22.7188 20 22.7188ZM20 13.8334C18.1562 13.8334 16.6667 15.323 16.6667 17.1667C16.6667 19.0105 18.1562 20.5001 20 20.5001C21.8438 20.5001 23.3333 19.0105 23.3333 17.1667C23.3333 15.323 21.8438 13.8334 20 13.8334Z" fill="#323232"/>
</g>
<defs>
<clipPath id="clip0_249_91">
<rect width="26.6667" height="26.6667" fill="white" transform="translate(6.66675 7.16675)"/>
</clipPath>
</defs>
</svg>
