<svg width="35" height="24" viewBox="0 0 35 24" fill="none" xmlns="http://www.w3.org/2000/svg">
<path d="M3.18182 23.1364C2.30682 23.1364 1.55803 22.8251 0.935455 22.2025C0.311818 21.5789 0 20.8296 0 19.9546V4.04547C0 3.17047 0.311818 2.42168 0.935455 1.7991C1.55803 1.17547 2.30682 0.863647 3.18182 0.863647H19.0909C19.9659 0.863647 20.7152 1.17547 21.3389 1.7991C21.9614 2.42168 22.2727 3.17047 22.2727 4.04547V19.9546C22.2727 20.8296 21.9614 21.5789 21.3389 22.2025C20.7152 22.8251 19.9659 23.1364 19.0909 23.1364H3.18182ZM27.0455 10.4091C26.5947 10.4091 26.2171 10.2564 25.9127 9.95092C25.6073 9.64653 25.4545 9.26895 25.4545 8.81819V2.45456C25.4545 2.0038 25.6073 1.62569 25.9127 1.32024C26.2171 1.01584 26.5947 0.863647 27.0455 0.863647H33.4091C33.8598 0.863647 34.2374 1.01584 34.5418 1.32024C34.8473 1.62569 35 2.0038 35 2.45456V8.81819C35 9.26895 34.8473 9.64653 34.5418 9.95092C34.2374 10.2564 33.8598 10.4091 33.4091 10.4091H27.0455ZM4.77273 16.7727H17.5L13.3239 11.2046L10.3409 15.1818L8.15341 12.2784L4.77273 16.7727ZM27.0455 23.1364C26.5947 23.1364 26.2171 22.9836 25.9127 22.6782C25.6073 22.3738 25.4545 21.9962 25.4545 21.5455V15.1818C25.4545 14.7311 25.6073 14.353 25.9127 14.0475C26.2171 13.7431 26.5947 13.5909 27.0455 13.5909H33.4091C33.8598 13.5909 34.2374 13.7431 34.5418 14.0475C34.8473 14.353 35 14.7311 35 15.1818V21.5455C35 21.9962 34.8473 22.3738 34.5418 22.6782C34.2374 22.9836 33.8598 23.1364 33.4091 23.1364H27.0455Z" fill="#323232"/>
</svg>
