<svg width="20" height="21" viewBox="0 0 20 21" fill="none" xmlns="http://www.w3.org/2000/svg">
<path d="M5.35733 1.31C6.10829 1.56439 6.8227 1.91605 7.48233 2.356C8.41391 2.11791 9.37181 1.9983 10.3333 2C11.3263 2 12.2843 2.124 13.1823 2.355C13.8417 1.91548 14.5558 1.56416 15.3063 1.31C16.0033 1.073 16.9963 0.689001 17.5863 1.342C17.9863 1.786 18.0863 2.53 18.1573 3.098C18.2373 3.732 18.2563 4.558 18.0463 5.378C18.8493 6.415 19.3333 7.652 19.3333 9C19.3333 11.042 18.2273 12.815 16.5903 14.043C15.8025 14.6265 14.9287 15.084 14.0003 15.399C14.2143 15.889 14.3333 16.431 14.3333 17V20C14.3333 20.2652 14.228 20.5196 14.0404 20.7071C13.8529 20.8946 13.5985 21 13.3333 21H7.33333C7.06811 21 6.81376 20.8946 6.62622 20.7071C6.43869 20.5196 6.33333 20.2652 6.33333 20V19.009C5.37833 19.126 4.57733 19.022 3.89633 18.733C3.18433 18.431 2.68833 17.963 2.31533 17.515C1.96133 17.091 1.57533 16.135 1.01733 15.949C0.892704 15.9075 0.777474 15.8419 0.678216 15.7558C0.578959 15.6698 0.497618 15.5651 0.438839 15.4476C0.320128 15.2104 0.30052 14.9357 0.384329 14.684C0.468137 14.4323 0.648496 14.2242 0.88573 14.1055C1.12296 13.9868 1.39764 13.9672 1.64933 14.051C2.31533 14.273 2.74933 14.753 3.04633 15.139C3.52633 15.759 3.91633 16.569 4.67633 16.892C4.98933 17.025 5.44833 17.112 6.16633 17.014L6.33333 16.98C6.33524 16.4358 6.44857 15.8977 6.66633 15.399C5.73792 15.084 4.86414 14.6265 4.07633 14.043C2.43933 12.815 1.33333 11.043 1.33333 9C1.33333 7.654 1.81633 6.418 2.61733 5.382C2.40733 4.562 2.42533 3.734 2.50533 3.099L2.51033 3.061C2.58333 2.479 2.66833 1.794 3.07633 1.342C3.66633 0.689001 4.66033 1.074 5.35633 1.311L5.35733 1.31Z" fill="#E8E4E4"/>
</svg>
