<svg width="130" height="130" viewBox="0 0 130 130" fill="none" xmlns="http://www.w3.org/2000/svg">
<rect width="130" height="130" rx="30" fill="#E8E4E4"/>
<g clip-path="url(#clip0_233_45)">
<path d="M99.8782 34.9946L93.5233 106.187L64.9572 114.106L36.47 106.198L30.1216 34.9946H99.8782Z" fill="#D9451F"/>
<path d="M65 108.053L88.0828 101.653L93.5132 40.8164H65V108.053Z" fill="#E44D26"/>
<path d="M52.6461 58.2822H65V49.5494H43.1023L43.3112 51.8922L45.4577 75.9575H65V67.2247H53.4442L52.6461 58.2822ZM54.6143 80.324H45.8479L47.0712 94.0358L64.9598 99.0014L65 98.9905V89.9047L64.9617 89.9148L55.2361 87.2887L54.6143 80.324Z" fill="#ECECEC"/>
<path d="M36.6118 15.6445H41.0497V20.0291H45.1094V15.6445H49.5476V28.9221H45.1097V24.476H41.05V28.9221H36.6121V15.6445H36.6118ZM55.3833 20.0477H51.477V15.6445H63.7308V20.0477H59.822V28.9221H55.3841V20.0477H55.3838H55.3833ZM65.6755 15.6445H70.3029L73.1494 20.3099L75.9931 15.6445H80.6224V28.9221H76.2026V22.341L73.1494 27.0619H73.0728L70.0177 22.341V28.9221H65.6755V15.6445ZM82.831 15.6445H87.2702V24.5334H93.5112V28.9221H82.8307V15.6445H82.831Z" fill="#E44D26"/>
<path d="M64.97 75.9575H75.7235L74.7096 87.2832L64.9697 89.9121V98.9973L82.8725 94.0358L83.0038 92.5603L85.0562 69.5697L85.2692 67.2247H64.97V75.9575ZM64.97 58.2609V58.2822H86.0638L86.2388 56.3194L86.6369 51.8922L86.8456 49.5494H64.97V58.2611V58.2609Z" fill="#ECECEC"/>
</g>
<defs>
<clipPath id="clip0_233_45">
<rect width="70" height="98.7109" fill="white" transform="translate(30 15.6445)"/>
</clipPath>
</defs>
</svg>
