<svg width="200" height="200" viewBox="0 0 200 200" fill="none" xmlns="http://www.w3.org/2000/svg">
<rect width="200" height="200" rx="40" fill="#E44D26"/>
<g clip-path="url(#clip0_38_503)">
<path d="M149.826 57.1351L140.748 158.838L99.9391 170.152L59.243 158.854L50.1738 57.1351H149.826Z" fill="#CFCBCB"/>
<path d="M100 161.504L132.975 152.362L140.733 65.452H100V161.504Z" fill="#E8E4E4"/>
<path d="M82.3516 90.4031H100V77.9277H68.7176L69.016 81.2746L72.0824 115.654H100V103.178H83.4918L82.3516 90.4031ZM85.1633 121.891H72.6398L74.3875 141.48L99.9426 148.573L100 148.558V135.578L99.9453 135.593L86.0516 131.841L85.1633 121.891Z" fill="#E44D26"/>
<path d="M59.4453 29.4922H65.7852V35.7559H71.5848V29.4922H77.925V48.4602H71.5852V42.1086H65.7855V48.4602H59.4457V29.4922H59.4453ZM86.2617 35.7824H80.6812V29.4922H98.1867V35.7824H92.6027V48.4602H86.2629V35.7824H86.2625H86.2617ZM100.965 29.4922H107.575L111.642 36.157L115.704 29.4922H122.318V48.4602H116.004V39.0586L111.642 45.8027H111.532L107.168 39.0586V48.4602H100.965V29.4922ZM125.473 29.4922H131.814V42.1906H140.73V48.4602H125.472V29.4922H125.473Z" fill="#E8E4E4"/>
<path d="M99.957 115.654H115.319L113.871 131.833L99.9566 135.589V148.568L125.532 141.48L125.72 139.372L128.652 106.528L128.956 103.178H99.957V115.654ZM99.957 90.3727V90.4031H130.091L130.341 87.5992L130.91 81.2746L131.208 77.9277H99.957V90.373V90.3727Z" fill="#E44D26"/>
</g>
<defs>
<clipPath id="clip0_38_503">
<rect width="100" height="141.016" fill="white" transform="translate(50 29.4922)"/>
</clipPath>
</defs>
</svg>
