<svg width="100" height="100" viewBox="0 0 100 100" fill="none" xmlns="http://www.w3.org/2000/svg">
<rect width="100" height="100" fill="#2A3344"/>
<g clip-path="url(#clip0_459_174)">
<path d="M74.9131 28.5676L70.3738 79.4191L49.9695 85.0758L29.6215 79.4269L25.0869 28.5676H74.9131Z" fill="#E8E4E4"/>
<path d="M50 80.7519L66.4877 76.181L70.3666 32.726H50V80.7519Z" fill="#E8E4E4"/>
<path d="M41.1758 45.2016H50V38.9639H34.3588L34.508 40.6373L36.0412 57.8268H50V51.5891H41.7459L41.1758 45.2016V45.2016ZM42.5816 60.9457H36.3199L37.1937 70.7398L49.9713 74.2867L50 74.2789V67.7891L49.9726 67.7963L43.0258 65.9205L42.5816 60.9457Z" fill="#2A3344"/>
<path d="M29.7227 14.7461H32.8926V17.8779H35.7924V14.7461H38.9625V24.2301H35.7926V21.0543H32.8928V24.2301H29.7229V14.7461H29.7227ZM43.1309 17.8912H40.3406V14.7461H49.0934V17.8912H46.3014V24.2301H43.1314V17.8912H43.1313H43.1309ZM50.4824 14.7461H53.7877L55.8209 18.0785L57.8522 14.7461H61.1588V24.2301H58.0018V19.5293L55.8209 22.9014H55.7662L53.584 19.5293V24.2301H50.4824V14.7461ZM62.7363 14.7461H65.9072V21.0953H70.365V24.2301H62.7361V14.7461H62.7363Z" fill="#E8E4E4"/>
<path d="M49.9785 57.8268H57.6595L56.9353 65.9166L49.9783 67.7943V74.2838L62.766 70.7398L62.8597 69.6859L64.3257 53.2641L64.4779 51.5891H49.9785V57.8268ZM49.9785 45.1863V45.2016H65.0455L65.1705 43.7996L65.4548 40.6373L65.6039 38.9639H49.9785V45.1865V45.1863Z" fill="#2A3344"/>
</g>
<defs>
<clipPath id="clip0_459_174">
<rect width="50" height="70.5078" fill="white" transform="translate(25 14.7461)"/>
</clipPath>
</defs>
</svg>
