<svg width="41" height="41" viewBox="0 0 41 41" fill="none" xmlns="http://www.w3.org/2000/svg">
<g clip-path="url(#clip0_80_219)">
<path d="M20.5 0.5C9.4543 0.5 0.5 9.4543 0.5 20.5C0.5 31.5457 9.4543 40.5 20.5 40.5C31.5457 40.5 40.5 31.5457 40.5 20.5C40.5 9.4543 31.5457 0.5 20.5 0.5ZM13.3125 8.44433C13.7246 8.42003 14.097 8.66633 14.3794 9.1035L17.1138 14.289C17.4017 14.9035 17.2381 15.5614 16.8086 16.0005L15.5562 17.2529C15.4789 17.3588 15.428 17.4781 15.4268 17.6093C15.9071 19.4685 17.364 21.1834 18.6495 22.3628C19.9349 23.5421 21.3164 25.1388 23.1099 25.5171C23.3315 25.5789 23.6031 25.6011 23.7617 25.4536L25.2168 23.9717C25.7191 23.591 26.4457 23.4065 26.9819 23.7178H27.0063L31.9404 26.6304C32.6646 27.0844 32.7397 27.9619 32.2211 28.4956L28.8228 31.8672C28.3209 32.3819 27.6542 32.5549 27.0064 32.5557C24.1415 32.4698 21.4345 31.0637 19.211 29.6187C15.5613 26.9636 12.2136 23.6705 10.1118 19.6919C9.30577 18.0236 8.35887 15.8949 8.44923 14.0328C8.4573 13.3322 8.64683 12.6459 9.14017 12.1944L12.5386 8.79597C12.8033 8.5707 13.0652 8.45893 13.3125 8.44433Z" fill="#323232"/>
</g>
<defs>
<clipPath id="clip0_80_219">
<rect width="40" height="40" fill="white" transform="translate(0.5 0.5)"/>
</clipPath>
</defs>
</svg>
