<svg width="41" height="41" viewBox="0 0 41 41" fill="none" xmlns="http://www.w3.org/2000/svg">
<path d="M20.5 11.6C17.4 11.6 14.9 14.1 14.9 17.2C14.9 20.3 17.4 22.8 20.5 22.8C23.6 22.8 26.1 20.3 26.1 17.2C26.1 14.1 23.6 11.6 20.5 11.6ZM20.5 20.5C18.7 20.5 17.2 19 17.2 17.2C17.2 15.4 18.7 13.9 20.5 13.9C22.3 13.9 23.8 15.4 23.8 17.2C23.8 19 22.3 20.5 20.5 20.5Z" fill="#323232"/>
<path d="M20.5 0.5C9.5 0.5 0.5 9.5 0.5 20.5C0.5 31.5 9.5 40.5 20.5 40.5C31.5 40.5 40.5 31.5 40.5 20.5C40.5 9.5 31.5 0.5 20.5 0.5ZM28.9 22.1L21.5 33.3C21.3 33.6 20.9 33.8 20.5 33.8C20.1 33.8 19.7 33.6 19.5 33.3L12.1 22.1C11.1 20.6 10.5 19.1 10.5 17.2C10.5 11.6 14.9 7.2 20.5 7.2C26.1 7.2 30.5 11.6 30.5 17.2C30.5 19.1 29.9 20.6 28.9 22.1Z" fill="#323232"/>
</svg>
