<svg width="41" height="41" viewBox="0 0 41 41" fill="none" xmlns="http://www.w3.org/2000/svg">
<path d="M20.82 0.320007C9.77417 0.320007 0.820007 9.27417 0.820007 20.32C0.820007 31.3658 9.77417 40.32 20.82 40.32C31.8658 40.32 40.82 31.3658 40.82 20.32C40.82 9.27417 31.8658 0.320007 20.82 0.320007ZM15.9242 28.6096H11.8742V15.5763H15.9242V28.6096ZM13.8742 13.9763C12.595 13.9763 11.7679 13.07 11.7679 11.9492C11.7679 10.8054 12.62 9.92626 13.9263 9.92626C15.2325 9.92626 16.0325 10.8054 16.0575 11.9492C16.0575 13.07 15.2325 13.9763 13.8742 13.9763ZM30.7158 28.6096H26.6658V21.3867C26.6658 19.7054 26.0783 18.5638 24.6138 18.5638C23.495 18.5638 22.8304 19.3367 22.5367 20.0804C22.4283 20.345 22.4013 20.72 22.4013 21.0929V28.6075H18.3492V19.7325C18.3492 18.1054 18.2971 16.745 18.2429 15.5742H21.7617L21.9471 17.3846H22.0283C22.5617 16.5346 23.8679 15.2804 26.0533 15.2804C28.7179 15.2804 30.7158 17.0658 30.7158 20.9033V28.6096V28.6096Z" fill="#323232"/>
</svg>
