<svg width="16" height="21" viewBox="0 0 16 21" fill="none" xmlns="http://www.w3.org/2000/svg">
<path d="M13.2457 7.64285H11.4286V1.92856C11.4286 1.29999 10.9143 0.785706 10.2857 0.785706H5.71429C5.08571 0.785706 4.57143 1.29999 4.57143 1.92856V7.64285H2.75429C1.73714 7.64285 1.22286 8.87713 1.94286 9.59713L7.18857 14.8428C7.63429 15.2886 8.35429 15.2886 8.8 14.8428L14.0457 9.59713C14.7657 8.87713 14.2629 7.64285 13.2457 7.64285ZM0 19.0714C0 19.7 0.514286 20.2143 1.14286 20.2143H14.8571C15.4857 20.2143 16 19.7 16 19.0714C16 18.4429 15.4857 17.9286 14.8571 17.9286H1.14286C0.514286 17.9286 0 18.4429 0 19.0714Z" fill="#E8E4E4"/>
</svg>
