<svg width="32" height="32" viewBox="0 0 32 32" fill="none" xmlns="http://www.w3.org/2000/svg">
<path d="M5.33337 13.9947V20C5.33337 21.0609 5.7548 22.0783 6.50495 22.8284C7.25509 23.5786 8.27251 24 9.33337 24H22.6667C23.7276 24 24.745 23.5786 25.4951 22.8284C26.2453 22.0783 26.6667 21.0609 26.6667 20V13.9947L16.5467 18.5493C16.3748 18.6266 16.1885 18.6666 16 18.6666C15.8116 18.6666 15.6253 18.6266 15.4534 18.5493L5.33337 13.9947ZM5.43204 11.1147L16 15.872L26.568 11.1147C26.3673 10.2301 25.8718 9.43997 25.1629 8.87402C24.454 8.30807 23.5738 7.99988 22.6667 8H9.33337C8.42628 7.99988 7.54607 8.30807 6.83718 8.87402C6.12829 9.43997 5.63281 10.2301 5.43204 11.1147Z" fill="#D9D5D5"/>
</svg>
