<svg width="74" height="37" viewBox="0 0 74 37" fill="none" xmlns="http://www.w3.org/2000/svg">
<path d="M26.15 0.749998V24.1C26.15 28.0667 25.0667 31.1 22.9 33.2C20.7667 35.3 17.8167 36.35 14.05 36.35C10.05 36.35 6.85 35.2333 4.45 33C2.08333 30.7667 0.9 27.55 0.9 23.35H10.6C10.6333 26.1167 11.65 27.5 13.65 27.5C15.45 27.5 16.35 26.3667 16.35 24.1V0.749998H26.15ZM45.2992 36.35C41.1992 36.35 37.8326 35.3833 35.1992 33.45C32.5659 31.4833 31.1492 28.6833 30.9492 25.05H41.3992C41.4992 26.2833 41.8659 27.1833 42.4992 27.75C43.1326 28.3167 43.9492 28.6 44.9492 28.6C45.8492 28.6 46.5826 28.3833 47.1492 27.95C47.7492 27.4833 48.0492 26.85 48.0492 26.05C48.0492 25.0167 47.5659 24.2167 46.5992 23.65C45.6326 23.0833 44.0659 22.45 41.8992 21.75C39.5992 20.9833 37.7326 20.25 36.2992 19.55C34.8992 18.8167 33.6659 17.7667 32.5992 16.4C31.5659 15 31.0492 13.1833 31.0492 10.95C31.0492 8.68333 31.6159 6.75 32.7492 5.15C33.8826 3.51667 35.4492 2.28333 37.4492 1.45C39.4492 0.616665 41.7159 0.199999 44.2492 0.199999C48.3492 0.199999 51.6159 1.16667 54.0492 3.1C56.5159 5 57.8326 7.68333 57.9992 11.15H47.3492C47.3159 10.0833 46.9826 9.28333 46.3492 8.75C45.7492 8.21666 44.9659 7.95 43.9992 7.95C43.2659 7.95 42.6659 8.16666 42.1992 8.6C41.7326 9.03333 41.4992 9.65 41.4992 10.45C41.4992 11.1167 41.7492 11.7 42.2492 12.2C42.7826 12.6667 43.4326 13.0833 44.1992 13.45C44.9659 13.7833 46.0992 14.2167 47.5992 14.75C49.8326 15.5167 51.6659 16.2833 53.0992 17.05C54.5659 17.7833 55.8159 18.8333 56.8492 20.2C57.9159 21.5333 58.4492 23.2333 58.4492 25.3C58.4492 27.4 57.9159 29.2833 56.8492 30.95C55.8159 32.6167 54.2992 33.9333 52.2992 34.9C50.3326 35.8667 47.9992 36.35 45.2992 36.35Z" fill="#E8E4E4"/>
<path d="M67.7551 36.4C66.0217 36.4 64.6217 35.9333 63.5551 35C62.5217 34.0333 62.0051 32.8167 62.0051 31.35C62.0051 29.8833 62.5217 28.6667 63.5551 27.7C64.6217 26.7333 66.0217 26.25 67.7551 26.25C69.4551 26.25 70.8217 26.7333 71.8551 27.7C72.9217 28.6667 73.4551 29.8833 73.4551 31.35C73.4551 32.7833 72.9217 33.9833 71.8551 34.95C70.8217 35.9167 69.4551 36.4 67.7551 36.4Z" fill="#0E56CB"/>
</svg>
