<svg width="20" height="18" viewBox="0 0 20 18" fill="none" xmlns="http://www.w3.org/2000/svg">
<path d="M4.33334 2.0005C4.33308 2.53093 4.12211 3.03953 3.74685 3.41442C3.37159 3.7893 2.86278 3.99976 2.33234 3.9995C1.80191 3.99923 1.29331 3.78826 0.918423 3.413C0.543538 3.03774 0.333079 2.52893 0.333344 1.9985C0.333609 1.46806 0.544577 0.959461 0.919837 0.584576C1.2951 0.209691 1.80391 -0.000768506 2.33434 -0.00050329C2.86478 -0.000238073 3.37338 0.21073 3.74826 0.58599C4.12315 0.96125 4.33361 1.47006 4.33334 2.0005ZM4.39334 5.4805H0.393344V18.0005H4.39334V5.4805ZM10.7133 5.4805H6.73334V18.0005H10.6733V11.4305C10.6733 7.7705 15.4433 7.4305 15.4433 11.4305V18.0005H19.3933V10.0705C19.3933 3.9005 12.3333 4.1305 10.6733 7.1605L10.7133 5.4805Z" fill="#E8E4E4"/>
</svg>
