<svg width="22" height="16" viewBox="0 0 22 16" fill="none" xmlns="http://www.w3.org/2000/svg">
<path d="M0 5.99467V12C0 13.0609 0.421427 14.0783 1.17157 14.8284C1.92172 15.5786 2.93913 16 4 16H17.3333C18.3942 16 19.4116 15.5786 20.1618 14.8284C20.9119 14.0783 21.3333 13.0609 21.3333 12V5.99467L11.2133 10.5493C11.0414 10.6266 10.8551 10.6666 10.6667 10.6666C10.4782 10.6666 10.2919 10.6266 10.12 10.5493L0 5.99467ZM0.0986665 3.11467L10.6667 7.872L21.2347 3.11467C21.0339 2.23007 20.5384 1.43997 19.8295 0.874025C19.1206 0.308075 18.2404 -0.000122529 17.3333 3.65425e-08H4C3.0929 -0.000122529 2.2127 0.308075 1.50381 0.874025C0.794916 1.43997 0.299438 2.23007 0.0986665 3.11467Z" fill="#E8E4E4"/>
</svg>
