<svg width="22" height="17" viewBox="0 0 22 17" fill="none" xmlns="http://www.w3.org/2000/svg">
<path d="M0.333374 6.49467V12.5C0.333374 13.5609 0.754802 14.5783 1.50495 15.3284C2.25509 16.0786 3.27251 16.5 4.33337 16.5H17.6667C18.7276 16.5 19.745 16.0786 20.4951 15.3284C21.2453 14.5783 21.6667 13.5609 21.6667 12.5V6.49467L11.5467 11.0493C11.3748 11.1266 11.1885 11.1666 11 11.1666C10.8116 11.1666 10.6253 11.1266 10.4534 11.0493L0.333374 6.49467ZM0.432041 3.61467L11 8.372L21.568 3.61467C21.3673 2.73007 20.8718 1.93997 20.1629 1.37402C19.454 0.808075 18.5738 0.499877 17.6667 0.5H4.33337C3.42628 0.499877 2.54607 0.808075 1.83718 1.37402C1.12829 1.93997 0.632812 2.73007 0.432041 3.61467Z" fill="#0E56CB"/>
</svg>
