<svg width="18" height="18" viewBox="0 0 18 18" fill="none" xmlns="http://www.w3.org/2000/svg">
<path d="M13.5 17.3333C10.0977 17.3289 6.83608 15.9754 4.43032 13.5697C2.02456 11.1639 0.671066 7.90227 0.666656 4.50001C0.666656 3.48335 1.07052 2.50832 1.78941 1.78943C2.5083 1.07054 3.48333 0.666675 4.49999 0.666675C4.71527 0.665036 4.9302 0.684574 5.14166 0.725009C5.34608 0.755259 5.54705 0.8055 5.74166 0.875009C5.87853 0.923033 6.0005 1.00595 6.0955 1.11557C6.1905 1.22518 6.25524 1.3577 6.28332 1.50001L7.42499 6.50001C7.45576 6.63573 7.45206 6.77699 7.41421 6.91091C7.37636 7.04483 7.30558 7.16714 7.20832 7.26668C7.09999 7.38334 7.09166 7.39167 6.06666 7.92501C6.88748 9.72572 8.32765 11.1718 10.125 12C10.6667 10.9667 10.675 10.9583 10.7917 10.85C10.8912 10.7528 11.0135 10.682 11.1474 10.6441C11.2813 10.6063 11.4226 10.6026 11.5583 10.6333L16.5583 11.775C16.6961 11.807 16.8234 11.8735 16.9284 11.9682C17.0334 12.063 17.1125 12.1829 17.1583 12.3167C17.2287 12.5145 17.2816 12.718 17.3167 12.925C17.3502 13.1344 17.3669 13.3462 17.3667 13.5583C17.3513 14.5707 16.9361 15.5358 16.2116 16.243C15.4872 16.9503 14.5124 17.3423 13.5 17.3333V17.3333Z" fill="#E8E4E4"/>
</svg>
