<svg width="200" height="200" viewBox="0 0 200 200" fill="none" xmlns="http://www.w3.org/2000/svg">
<rect width="200" height="200" rx="40" fill="#001E36"/>
<path d="M35 145.532V52.7928C35 52.1167 35.2907 51.777 35.8713 51.777L36.7899 51.7745L38.3601 51.7576L40.5421 51.7145L47.8522 51.5598L55.6904 51.4145C58.4471 51.3671 61.1802 51.3418 63.8895 51.3418C71.2418 51.3418 77.4338 52.2613 82.4664 54.0993C87.0059 55.6349 91.1459 58.1633 94.585 61.5007C97.5004 64.3937 99.7534 67.8848 101.189 71.7331C102.546 75.4778 103.234 79.4324 103.221 83.4156C103.221 91.1575 101.43 97.5431 97.8504 102.573C94.349 107.48 89.4652 111.233 83.8219 113.353L83.3377 113.531C77.4448 115.729 70.919 116.523 63.7619 116.573L62.6498 116.576L60.9993 116.568L60.1669 116.556L59.239 116.534L58.6795 116.512L58.3398 116.494L57.504 116.464L56.4823 116.443L54.9442 116.432L54.6019 116.431V145.386C54.6274 145.564 54.6111 145.745 54.5545 145.915C54.4978 146.085 54.4023 146.24 54.2755 146.366C54.1487 146.493 53.9941 146.589 53.824 146.645C53.6539 146.702 53.4729 146.718 53.2954 146.693H36.0166C35.338 146.693 35 146.307 35 145.532ZM54.6028 69.1927V99.4403C55.7611 99.5338 56.9225 99.5822 58.0846 99.5856H62.8746C66.177 99.5745 69.4602 99.0829 72.621 98.1262L73.2515 97.9293C76.127 97.0751 78.6964 95.4125 80.6536 93.1393C82.4723 90.9944 83.4146 88.0391 83.4796 84.2725L83.4839 83.8508C83.5599 81.0434 82.8298 78.2732 81.3787 75.8689C79.8537 73.5437 77.6495 71.7446 75.0659 70.7164C71.6922 69.4052 68.0886 68.7884 64.4709 68.9028L62.6303 68.9079L61.4692 68.918L60.3613 68.9324L58.7978 68.9628L57.657 68.995L57.0645 69.0169L56.2727 69.0541L55.5983 69.0955L55.2138 69.1259L54.8817 69.1581L54.7355 69.175L54.6028 69.1927ZM159.335 93.9404C156.803 92.6394 154.118 91.6621 151.342 91.0316L150.7 90.893C147.646 90.1923 144.529 89.8063 141.396 89.7411L140.614 89.7319C138.778 89.6821 136.944 89.9022 135.171 90.3851C134.043 90.636 133.04 91.2785 132.34 92.1987C131.867 92.9349 131.616 93.7913 131.615 94.6664C131.642 95.5149 131.948 96.331 132.486 96.9878C133.256 97.8887 134.182 98.6435 135.22 99.2163L135.534 99.3828C137.603 100.497 139.735 101.49 141.92 102.358C146.79 103.988 151.444 106.206 155.779 108.961C158.732 110.825 161.176 113.394 162.891 116.436C164.333 119.316 165.055 122.503 164.996 125.724C165.083 129.977 163.867 134.155 161.512 137.698C158.991 141.294 155.49 144.089 151.425 145.751C147.168 147.622 141.941 148.588 135.743 148.652L135.099 148.655C131.257 148.694 127.42 148.358 123.643 147.651L122.835 147.494C119.655 146.911 116.559 145.936 113.619 144.591C113.324 144.439 113.074 144.21 112.895 143.93C112.717 143.649 112.616 143.326 112.603 142.994V127.175C112.586 127.022 112.61 126.866 112.674 126.726C112.738 126.585 112.839 126.465 112.967 126.377C113.091 126.306 113.234 126.276 113.377 126.289C113.519 126.302 113.655 126.358 113.764 126.449C117.237 128.497 121.007 129.99 124.939 130.876C128.405 131.745 131.961 132.208 135.534 132.255C138.919 132.255 141.411 131.819 143.008 130.949C143.729 130.619 144.339 130.086 144.764 129.417C145.189 128.747 145.411 127.969 145.403 127.175C145.403 125.92 144.677 124.709 143.226 123.547C142.618 123.061 141.745 122.531 140.609 121.959L140.065 121.692L139.486 121.419L139.181 121.28L138.544 120.998C138.434 120.95 138.323 120.902 138.212 120.854L137.519 120.563L137.158 120.416L136.41 120.116L136.021 119.963L135.215 119.653L134.373 119.338C129.816 117.752 125.495 115.555 121.528 112.807C118.691 110.834 116.356 108.225 114.708 105.188C113.28 102.328 112.559 99.1679 112.603 95.972C112.595 92.1321 113.65 88.3648 115.651 85.0872C117.932 81.4787 121.208 78.6054 125.084 76.8154C129.341 74.6883 134.662 73.6235 141.048 73.6218C144.789 73.5918 148.526 73.8589 152.224 74.4205C154.902 74.7601 157.52 75.4682 160.004 76.5247C160.403 76.6397 160.725 76.9346 160.874 77.3233C160.973 77.6774 161.021 78.0434 161.019 78.4118V93.07C161.041 93.4165 160.874 93.7486 160.584 93.9404C160.39 94.0369 160.176 94.0871 159.96 94.0871C159.743 94.0871 159.529 94.0369 159.335 93.9404Z" fill="#31A8FF"/>
</svg>
