<svg width="130" height="130" viewBox="0 0 130 130" fill="none" xmlns="http://www.w3.org/2000/svg">
<rect width="130" height="130" rx="30" fill="#E8E4E4"/>
<path d="M25 93.0195V35.9494C25 35.5334 25.1789 35.3243 25.5362 35.3243L26.1015 35.3228L27.0677 35.3124L28.4105 35.2858L32.909 35.1907L37.7326 35.1012C39.429 35.0721 41.1109 35.0565 42.7782 35.0565C47.3027 35.0565 51.1131 35.6223 54.2101 36.7534C57.0036 37.6984 59.5513 39.2543 61.6677 41.3081C63.4618 43.0884 64.8482 45.2368 65.7314 47.605C66.5669 49.9094 66.9903 52.343 66.9822 54.7942C66.9822 59.5585 65.8802 63.488 63.6772 66.5834C61.5225 69.6032 58.517 71.9127 55.0442 73.2173L54.7463 73.3265C51.1199 74.6791 47.104 75.168 42.6996 75.1987L42.0152 75.2008L40.9996 75.1956L40.4873 75.1883L39.9163 75.1748L39.572 75.1612L39.3629 75.1503L38.8486 75.1316L38.2199 75.1186L37.2734 75.1118L37.0627 75.1113V92.93C37.0784 93.0393 37.0684 93.1506 37.0335 93.2553C36.9986 93.36 36.9399 93.4552 36.8618 93.5332C36.7838 93.6112 36.6887 93.67 36.584 93.7048C36.4793 93.7397 36.368 93.7497 36.2587 93.7341H25.6256C25.208 93.7341 25 93.4969 25 93.0195ZM37.0633 46.0417V64.6556C37.776 64.7131 38.4908 64.7429 39.2059 64.745H42.1536C44.1858 64.7382 46.2063 64.4356 48.1514 63.8469L48.5394 63.7257C50.3089 63.2001 51.8901 62.1769 53.0945 60.778C54.2137 59.4581 54.7936 57.6395 54.8336 55.3216L54.8362 55.0621C54.883 53.3344 54.4337 51.6297 53.5408 50.1501C52.6023 48.7192 51.2459 47.6121 49.6559 46.9793C47.5798 46.1724 45.3622 45.7928 43.136 45.8633L42.0033 45.8664L41.2887 45.8726L40.6069 45.8815L39.6448 45.9002L38.9427 45.92L38.5782 45.9335L38.0909 45.9564L37.6759 45.9819L37.4393 46.0006L37.2349 46.0203L37.1449 46.0307L37.0633 46.0417ZM101.514 61.271C99.956 60.4704 98.3034 59.869 96.5953 59.481L96.2 59.3957C94.3208 58.9645 92.4024 58.7269 90.4747 58.6869L89.9931 58.6811C88.8631 58.6505 87.7347 58.786 86.644 59.0831C85.9496 59.2375 85.3323 59.6329 84.9018 60.1992C84.6107 60.6522 84.4559 61.1793 84.4556 61.7178C84.4719 62.24 84.6602 62.7422 84.9912 63.1464C85.4652 63.7007 86.0351 64.1652 86.6736 64.5177L86.8671 64.6202C88.1405 65.3058 89.4525 65.9171 90.7966 66.4508C93.794 67.4542 96.6581 68.8188 99.3256 70.5145C101.143 71.6615 102.647 73.2422 103.702 75.1144C104.59 76.8869 105.034 78.8481 104.997 80.8299C105.051 83.4472 104.303 86.0183 102.854 88.1986C101.302 90.4114 99.1476 92.1317 96.6462 93.1547C94.0267 94.3061 90.8096 94.9005 86.9955 94.9396L86.5993 94.9416C84.2348 94.9656 81.8736 94.7586 79.5494 94.3238L79.0522 94.2271C77.0952 93.8682 75.1903 93.2681 73.3809 92.4407C73.1991 92.3468 73.0454 92.2063 72.9356 92.0337C72.8258 91.861 72.7638 91.6623 72.7558 91.4578V81.7233C72.7451 81.6288 72.7603 81.5332 72.7997 81.4467C72.8391 81.3601 72.9012 81.2859 72.9795 81.2319C73.0561 81.1885 73.1442 81.1696 73.2319 81.1776C73.3196 81.1856 73.4028 81.2201 73.4704 81.2766C75.6071 82.5366 77.9272 83.4556 80.3471 84.0007C82.4802 84.5354 84.6682 84.8202 86.8671 84.8494C88.9504 84.8494 90.4836 84.581 91.4665 84.0454C91.9103 83.8422 92.2857 83.5148 92.5473 83.1026C92.8089 82.6905 92.9454 82.2114 92.9403 81.7233C92.9403 80.9505 92.4936 80.2058 91.6006 79.4907C91.2262 79.1912 90.689 78.8651 89.99 78.513L89.6556 78.3487L89.2989 78.1807L89.1116 78.0954L88.7195 77.9217C88.6515 77.892 88.5834 77.8625 88.5151 77.8333L88.0887 77.6544L87.8666 77.5634L87.4059 77.3788L87.1666 77.2852L86.671 77.0943L86.1525 76.9003C83.3481 75.9243 80.6891 74.5723 78.2482 72.8813C76.5025 71.6672 75.065 70.0614 74.0508 68.1925C73.1725 66.4326 72.7284 64.4879 72.7558 62.5212C72.7509 60.1582 73.3999 57.8398 74.6312 55.8229C76.0353 53.6023 78.0511 51.8341 80.4366 50.7326C83.0561 49.4236 86.3304 48.7683 90.2605 48.7673C92.5623 48.7488 94.8619 48.9131 97.1377 49.2587C98.7856 49.4677 100.397 49.9035 101.925 50.5537C102.171 50.6244 102.369 50.8059 102.461 51.0451C102.522 51.263 102.551 51.4882 102.55 51.715V60.7354C102.563 60.9486 102.461 61.153 102.283 61.271C102.163 61.3304 102.032 61.3613 101.898 61.3613C101.765 61.3613 101.633 61.3304 101.514 61.271Z" fill="#31A8FF"/>
</svg>
