<svg width="100" height="100" viewBox="0 0 100 100" fill="none" xmlns="http://www.w3.org/2000/svg">
<rect width="100" height="100" fill="#2A3344"/>
<path d="M25 67.5122V31.8434C25 31.5834 25.1118 31.4527 25.3351 31.4527L25.6884 31.4518L26.2923 31.4453L27.1316 31.4287L29.9431 31.3692L32.9579 31.3133C34.0181 31.2951 35.0693 31.2853 36.1114 31.2853C38.9392 31.2853 41.3207 31.639 43.2563 32.3459C45.0023 32.9365 46.5946 33.909 47.9173 35.1926C49.0386 36.3053 49.9052 37.648 50.4571 39.1281C50.9793 40.5684 51.2439 42.0894 51.2388 43.6214C51.2388 46.5991 50.5501 49.0551 49.1732 50.9897C47.8265 52.8771 45.9481 54.3205 43.7777 55.1358L43.5914 55.2041C41.3249 56.0495 38.815 56.355 36.0623 56.3742L35.6345 56.3755L34.9997 56.3723L34.6796 56.3677L34.3227 56.3593L34.1075 56.3508L33.9768 56.344L33.6554 56.3323L33.2624 56.3242L32.6708 56.3199L32.5392 56.3196V67.4563C32.549 67.5246 32.5427 67.5942 32.5209 67.6596C32.4992 67.725 32.4624 67.7845 32.4137 67.8333C32.3649 67.882 32.3054 67.9188 32.24 67.9406C32.1746 67.9624 32.105 67.9686 32.0367 67.9588H25.391C25.13 67.9588 25 67.8106 25 67.5122V67.5122ZM32.5395 38.1511V49.7848C32.985 49.8207 33.4317 49.8394 33.8787 49.8407H35.721C36.9911 49.8364 38.2539 49.6473 39.4696 49.2793L39.7121 49.2036C40.8181 48.8751 41.8063 48.2356 42.5591 47.3613C43.2586 46.5364 43.621 45.3997 43.646 43.951L43.6476 43.7888C43.6769 42.7091 43.3961 41.6436 42.838 40.7189C42.2514 39.8245 41.4037 39.1326 40.41 38.7371C39.1124 38.2328 37.7264 37.9956 36.335 38.0396L35.627 38.0415L35.1804 38.0454L34.7543 38.051L34.153 38.0627L33.7142 38.075L33.4864 38.0835L33.1818 38.0978L32.9224 38.1137L32.7745 38.1254L32.6468 38.1377L32.5906 38.1442L32.5395 38.1511V38.1511ZM72.8212 47.6694C71.8475 47.169 70.8146 46.7932 69.747 46.5507L69.5 46.4973C68.3255 46.2278 67.1265 46.0794 65.9217 46.0543L65.6207 46.0507C64.9144 46.0316 64.2092 46.1163 63.5275 46.302C63.0935 46.3985 62.7077 46.6456 62.4386 46.9995C62.2567 47.2827 62.1599 47.6121 62.1597 47.9486C62.1699 48.275 62.2876 48.5889 62.4945 48.8415C62.7908 49.188 63.1469 49.4783 63.546 49.6986L63.6669 49.7627C64.4628 50.1912 65.2828 50.5732 66.1229 50.9068C67.9963 51.5339 69.7863 52.3868 71.4535 53.4466C72.5894 54.1635 73.5294 55.1514 74.189 56.3216C74.7435 57.4294 75.0212 58.6551 74.9983 59.8937C75.0317 61.5295 74.5642 63.1365 73.6585 64.4991C72.6889 65.8822 71.3423 66.9574 69.7789 67.5967C68.1417 68.3164 66.131 68.6879 63.7472 68.7123L63.4995 68.7136C62.0217 68.7285 60.546 68.5992 59.0933 68.3274L58.7826 68.2669C57.5595 68.0426 56.3689 67.6676 55.2381 67.1505C55.1244 67.0918 55.0284 67.004 54.9598 66.8961C54.8911 66.7881 54.8524 66.6639 54.8474 66.5361V60.4521C54.8407 60.3931 54.8502 60.3333 54.8748 60.2792C54.8994 60.2251 54.9382 60.1787 54.9872 60.145C55.0351 60.1179 55.0901 60.106 55.1449 60.111C55.1998 60.116 55.2518 60.1376 55.294 60.1729C56.6294 60.9604 58.0795 61.5348 59.5919 61.8754C60.9251 62.2097 62.2926 62.3877 63.6669 62.4059C64.969 62.4059 65.9272 62.2382 66.5415 61.9034C66.8189 61.7764 67.0536 61.5718 67.2171 61.3142C67.3806 61.0566 67.4659 60.7572 67.4627 60.4521C67.4627 59.9691 67.1835 59.5037 66.6254 59.0567C66.3914 58.8695 66.0556 58.6657 65.6188 58.4457L65.4098 58.343L65.1868 58.238L65.0698 58.1847L64.8247 58.0761C64.7822 58.0575 64.7396 58.0391 64.697 58.0208L64.4304 57.909L64.2916 57.8522L64.0037 57.7368L63.8541 57.6783L63.5444 57.559L63.2203 57.4377C61.4676 56.8277 59.8057 55.9827 58.2801 54.9259C57.189 54.167 56.2906 53.1634 55.6567 51.9953C55.1078 50.8954 54.8303 49.68 54.8474 48.4508C54.8443 46.9739 55.2499 45.5249 56.0195 44.2643C56.8971 42.8764 58.1569 41.7713 59.6479 41.0829C61.2851 40.2648 63.3315 39.8552 65.7878 39.8546C67.2264 39.843 68.6637 39.9457 70.0861 40.1617C71.116 40.2924 72.123 40.5647 73.0783 40.9711C73.2321 41.0153 73.3559 41.1287 73.4131 41.2782C73.4512 41.4144 73.4697 41.5552 73.469 41.6969V47.3346C73.4772 47.4679 73.4131 47.5956 73.3016 47.6694C73.227 47.7065 73.1448 47.7258 73.0614 47.7258C72.9781 47.7258 72.8959 47.7065 72.8212 47.6694V47.6694Z" fill="#E8E4E4"/>
</svg>
