<svg width="32" height="32" viewBox="0 0 32 32" fill="none" xmlns="http://www.w3.org/2000/svg">
<g clip-path="url(#clip0_142_58)">
<path d="M16 17.3334C19.1947 17.3334 22.1 18.2587 24.2373 19.5614C25.304 20.2147 26.216 20.9814 26.8747 21.8147C27.5227 22.636 28 23.6174 28 24.6667C28 25.7934 27.452 26.6814 26.6627 27.3147C25.916 27.9147 24.9307 28.312 23.884 28.5894C21.78 29.1454 18.972 29.3334 16 29.3334C13.028 29.3334 10.22 29.1467 8.116 28.5894C7.06933 28.312 6.084 27.9147 5.33733 27.3147C4.54667 26.68 4 25.7934 4 24.6667C4 23.6174 4.47733 22.636 5.12533 21.8147C5.784 20.9814 6.69467 20.2147 7.76267 19.5614C9.9 18.2587 12.8067 17.3334 16 17.3334ZM16 2.66669C17.7681 2.66669 19.4638 3.36907 20.714 4.61931C21.9643 5.86955 22.6667 7.56524 22.6667 9.33335C22.6667 11.1015 21.9643 12.7972 20.714 14.0474C19.4638 15.2976 17.7681 16 16 16C14.2319 16 12.5362 15.2976 11.286 14.0474C10.0357 12.7972 9.33333 11.1015 9.33333 9.33335C9.33333 7.56524 10.0357 5.86955 11.286 4.61931C12.5362 3.36907 14.2319 2.66669 16 2.66669V2.66669Z" fill="#323232"/>
</g>
<defs>
<clipPath id="clip0_142_58">
<rect width="32" height="32" fill="white"/>
</clipPath>
</defs>
</svg>
